<?xml version="1.0" standalone="no"?>
<!DOCTYPE svg PUBLIC "-//W3C//DTD SVG 1.1//EN" "http://www.w3.org/Graphics/SVG/1.1/DTD/svg11.dtd" >
<svg xmlns="http://www.w3.org/2000/svg" xmlns:xlink="http://www.w3.org/1999/xlink" version="1.1">
<metadata>
Created by FontForge 20150824 at Sun Feb  7 02:44:27 2016
 By Everything Fonts
Porky's (c)1998, Font-a-licious Fonts. 
</metadata>
<defs>
<font id="Porkys" horiz-adv-x="564" >
  <font-face 
    font-family="Porky's"
    font-weight="700"
    font-stretch="normal"
    units-per-em="1000"
    panose-1="0 0 7 0 0 0 0 0 0 0"
    ascent="800"
    descent="-200"
    x-height="569"
    cap-height="740"
    bbox="-192.333 -333.367 1073 1002"
    underline-thickness="50"
    underline-position="-125"
    unicode-range="U+0020-F002"
  />
<missing-glyph horiz-adv-x="500" 
d="M63 0v723h375v-723h-375zM125 63h250v598h-250v-598z" />
    <glyph glyph-name=".notdef" horiz-adv-x="500" 
d="M63 0v723h375v-723h-375zM125 63h250v598h-250v-598z" />
    <glyph glyph-name=".null" horiz-adv-x="0" 
 />
    <glyph glyph-name="nonmarkingreturn" horiz-adv-x="285" 
 />
    <glyph glyph-name="space" unicode=" " horiz-adv-x="285" 
 />
    <glyph glyph-name="exclam" unicode="!" horiz-adv-x="319" 
d="M48 273q0 13 3 26l100 372q18 68 89 68q41 0 70 -25q32 -28 32 -68q0 -13 -4 -25l-99 -372q-19 -69 -90 -69q-41 0 -71 26.5t-30 66.5zM-11 76q0 42 30 72.5t73 30.5q42 0 72.5 -30t30.5 -73t-30 -73t-73 -30q-42 0 -72.5 30t-30.5 73z" />
    <glyph glyph-name="quotedbl" unicode="&#x22;" horiz-adv-x="390" 
d="M266 391q-64 17 -64 79q0 12 4 25l44 165q17 63 78 63q13 0 26 -3q63 -17 63 -79q0 -13 -3 -25l-44 -165q-17 -63 -79 -63q-12 0 -25 3zM90 438q-63 17 -63 79q0 13 3 25l44 165q17 63 79 63q12 0 25 -3q64 -17 64 -79q0 -12 -4 -25l-44 -165q-17 -63 -78 -63
q-13 0 -26 3z" />
    <glyph glyph-name="numbersign" unicode="#" horiz-adv-x="618" 
d="M546 418l-77 -9l-2 -65l57 7q35 5 58 -16q20 -19 24 -47q3 -29 -13 -53t-51 -29l-78 -9l-1 -141q-1 -70 -66 -78q-27 -3 -51 11.5t-28 44.5q-1 11 1 145l-45 -6l-2 -140q-1 -70 -66 -78q-27 -4 -49 10q-26 16 -29 45q-2 12 0 146l-56 -7q-35 -5 -56.5 15t-25.5 48
q-3 29 12 51q17 26 52 31l77 9l2 65l-57 -7q-35 -5 -56.5 15t-25.5 48q-3 29 13 53t51 29l78 9l1 141q1 70 66 78q27 3 51 -11.5t28 -44.5q1 -11 -1 -145l45 6l2 140q1 70 66 78q27 4 49 -10q26 -16 29 -45q2 -12 0 -146l56 7q35 5 58 -16q20 -19 24 -47q3 -29 -12 -51
q-17 -26 -52 -31zM279 386l-1 -65l44 5l1 65z" />
    <glyph glyph-name="dollar" unicode="$" horiz-adv-x="565" 
d="M286 551l13 -82q113 -15 170 -51q75 -49 92 -153q3 -22 3 -43q0 -92 -59 -158.5t-151 -88.5l19 28l5 -32q2 -15 2 -26q0 -46 -43 -53q-51 -8 -62 63l-1 7q-19 -1 -38 -1q-76 0 -128 21q-72 30 -72 95q0 43 27.5 68.5t70.5 25.5q20 0 55 -6q41 -8 54 -9l-19 117
q-108 14 -158 42q-73 42 -88 138q-3 21 -3 42q0 82 50 146q48 61 127 89l-1 9q-3 18 -3 30q0 43 43 50q7 1 13 1q39 0 49 -64l2 -8q70 2 122 -19q71 -29 71 -91q0 -34 -20 -60q-21 -29 -57 -35q-18 -3 -43 1q-21 4 -42 7zM186 518q-2 -7 -1 -14q1 -5 4 -9zM333 252l10 -64
q13 17 9 41q-2 15 -19 23z" />
    <glyph glyph-name="percent" unicode="%" horiz-adv-x="673" 
d="M190 403q-67 11 -109 64q-41 50 -41 117q0 77 52 133.5t128 56.5q14 0 29 -2q67 -11 108.5 -63t41.5 -119q0 -77 -52 -133t-128 -56q-14 0 -29 2zM639 592l-431 -570q-34 -35 -59 -35q-36 0 -61.5 28.5t-20.5 64.5q4 24 21 46l424 564q27 36 59 36q38 0 65 -28.5
t21 -66.5q-4 -21 -18 -39zM473 -60q-67 11 -109 64q-41 50 -41 117q0 77 52 133.5t128 56.5q15 0 29 -2q67 -11 108.5 -63t41.5 -119q0 -76 -52 -132.5t-128 -56.5q-14 0 -29 2zM225 622q-27 4 -32 -31q-6 -33 21 -38q27 -4 32 30q6 34 -21 39zM508 159q-27 4 -32 -31
q-6 -33 21 -38q27 -4 32 30q6 34 -21 39z" />
    <glyph glyph-name="ampersand" unicode="&#x26;" horiz-adv-x="701" 
d="M638 -18q-37 -3 -72 24q-29 26 -58 53q-98 -93 -211 -101q-114 -8 -193 48q-86 60 -94 173q-9 134 121 232q-56 57 -60 126q-7 93 66 152q63 50 155 56q82 6 152 -32q83 -46 89 -133q7 -108 -100 -189l70 -67q35 46 45 56q29 27 65 30q33 2 58 -21.5t28 -60.5
q3 -45 -63 -127q28 -27 56 -53q32 -36 34 -68q3 -36 -23.5 -66t-64.5 -32zM303 582q-14 -1 -24 -10t-9 -18q1 -22 36 -53q42 26 40 51q-2 33 -43 30zM254 299q-54 -45 -51 -92q5 -73 84 -67q49 3 89 41z" />
    <glyph glyph-name="quotesingle" unicode="'" horiz-adv-x="212" 
d="M76 415q-64 17 -64 79q0 12 4 25l44 164q17 64 79 64q12 0 25 -4q64 -17 64 -79q0 -12 -4 -25l-44 -164q-17 -64 -79 -64q-12 0 -25 4z" />
    <glyph glyph-name="parenleft" unicode="(" horiz-adv-x="334" 
d="M51 -172q-73 19 -73 188q0 153 40 301q25 93 83 212q73 151 135 189q25 14 55 6q28 -7 47.5 -29.5t19.5 -52.5q0 -10 -3 -21.5t-38 -65.5q-89 -135 -129 -284q-31 -116 -31 -241q0 -42 3 -91q2 -38 0 -48q-18 -67 -84 -67q-12 0 -25 4z" />
    <glyph glyph-name="parenright" unicode=")" horiz-adv-x="238" 
d="M174 -153q-17 -23 -48 -27q-35 -4 -63 15q-31 20 -36 57q-1 12 11 76q20 99 20 197q0 57 -7 114q-18 152 -98 319q-17 34 -18 44q-5 39 17 67t61 32q83 11 151 -185q47 -132 62 -256q6 -49 6 -126q0 -249 -58 -327z" />
    <glyph glyph-name="asterisk" unicode="*" horiz-adv-x="394" 
d="M248 674q18 14 36 17q33 5 60 -18q24 -21 29 -52q6 -38 -31 -67q44 -15 50 -54q5 -31 -11 -59q-18 -31 -52 -36q-18 -3 -39 5q2 -11 2 -21q0 -32 -23.5 -51t-56.5 -19q-66 0 -72 68q-18 -15 -37 -18q-34 -6 -60 19q-22 21 -27 52q-6 38 31 67q-51 18 -51 68q0 29 15 50
q16 25 47 30q18 3 41 -6q-3 12 -3 23q0 32 25 52q22 17 55 17q66 0 72 -67z" />
    <glyph glyph-name="plus" unicode="+" horiz-adv-x="576" 
d="M489 137l-118 19l-19 -119q-5 -33 -27 -52.5t-54 -19.5q-38 0 -63 23t-25 60q0 8 1 16l19 118l-119 19q-33 5 -52.5 27.5t-19.5 53.5q0 38 23 63t60 25q8 0 16 -1l118 -19l19 119q5 33 27 52.5t54 19.5q38 0 63 -23t25 -60q0 -8 -1 -16l-19 -118l119 -19
q33 -5 52.5 -27.5t19.5 -53.5q0 -38 -23 -63t-60 -25q-8 0 -16 1z" />
    <glyph glyph-name="comma" unicode="," horiz-adv-x="222" 
d="M219 46q-25 -58 -50 -117q-45 -87 -99 -91q-37 -2 -67 22.5t-32 62.5q-2 33 40 123q22 42 44 85q22 49 76 53q37 2 67.5 -22.5t32.5 -62.5q2 -23 -12 -53z" />
    <glyph glyph-name="hyphen" unicode="-" horiz-adv-x="390" 
d="M275 177l-206 56q-60 16 -60 78q0 37 23 66t59 29q11 0 23 -3l206 -56q60 -16 60 -79q0 -37 -22 -64q-24 -30 -60 -30q-11 0 -23 3z" />
    <glyph glyph-name="hyphen" unicode="&#x2010;" horiz-adv-x="390" 
d="M275 177l-206 56q-60 16 -60 78q0 37 23 66t59 29q11 0 23 -3l206 -56q60 -16 60 -79q0 -37 -22 -64q-24 -30 -60 -30q-11 0 -23 3z" />
    <glyph glyph-name="period" unicode="." horiz-adv-x="221" 
d="M31 66q0 42 30 72.5t73 30.5q42 0 72.5 -30t30.5 -73q0 -42 -30 -72.5t-73 -30.5q-42 0 -72.5 30t-30.5 73z" />
    <glyph glyph-name="slash" unicode="/" horiz-adv-x="359" 
d="M378 655l-189 -644q-16 -55 -72 -62q-34 -4 -62 15.5t-32 53.5q-2 13 6 39l190 644q16 55 72 62q34 4 61.5 -15.5t31.5 -53.5q2 -13 -6 -39z" />
    <glyph glyph-name="zero" unicode="0" horiz-adv-x="601" 
d="M348 -32q-24 -4 -47 -4q-129 0 -213 117q-66 93 -87 230q-8 49 -8 99q0 126 48 211q60 103 185 123q24 4 47 4q129 0 213 -117q66 -93 87 -230q8 -49 8 -99q0 -126 -48 -211q-60 -103 -185 -123zM255 560q-63 -9 -63 -107q0 -34 12 -110q14 -87 28 -124q31 -76 87 -67
q63 9 63 108q0 35 -12 109q-14 89 -29 126q-30 74 -86 65z" />
    <glyph glyph-name="one" unicode="1" horiz-adv-x="355" 
d="M82 61q0 10 1 20l75 471l-33 6q-79 12 -79 90q0 40 26 68.5t66 28.5q8 0 16 -2l140 -22q37 -6 57 -31.5t20 -59.5q0 -9 -1 -18l-89 -562q-7 -41 -33.5 -64.5t-63.5 -23.5q-43 0 -72.5 27.5t-29.5 71.5z" />
    <glyph glyph-name="two" unicode="2" horiz-adv-x="543" 
d="M483 -12l-333 -24q-43 -3 -72 16q-34 22 -37 68q-2 32 24 69q59 77 117 154q70 92 110 160q27 46 25 80q-2 22 -17 36t-34 13q-36 -3 -49.5 -44.5t-24.5 -81.5q-20 -43 -70 -47q-46 -3 -74 24t-31 67q-7 104 66 183.5t176 86.5q104 7 179.5 -52t83.5 -163q6 -87 -62 -199
q-22 -38 -124 -174l129 9q43 3 72 -16q34 -22 37 -68q3 -45 -26 -72q-25 -23 -65 -25z" />
    <glyph glyph-name="three" unicode="3" horiz-adv-x="553" 
d="M170 -22q-94 25 -153 98q-52 66 -52 138q0 20 5 38q8 32 38 50q26 16 58 16q14 0 26 -3q35 -10 51 -45q11 -32 22 -65q17 -35 56 -46q10 -3 19 -3q52 0 65 51q4 12 4 22q0 31 -41 51q-59 27 -69 37q-22 22 -22 54q0 14 4 30q12 42 42 57q23 11 69 11q32 -1 43 4
q15 7 21 31q2 6 2 12q0 31 -37 41q-10 2 -19 2q-26 0 -63 -30.5t-65 -30.5q-11 0 -23 3q-65 17 -65 90q0 72 77 117q66 38 143 38q35 0 67 -9q90 -24 139 -90q43 -57 43 -126q0 -54 -29 -101.5t-76 -73.5q59 -66 59 -148q0 -27 -7 -54q-22 -80 -92 -128.5t-159 -48.5
q-41 0 -81 11z" />
    <glyph glyph-name="four" unicode="4" horiz-adv-x="563" 
d="M477 261q64 -22 64 -85q0 -12 -3 -25q-18 -67 -88 -67q-14 0 -28 4l-16 4l31 18l-22 -82q-22 -80 -86 -80q-16 0 -35 5q-73 20 -73 85q0 19 6 40l16 58l-209 56q-73 19 -73 85q0 11 3 20q7 25 31 50l322 334q41 43 92 43q21 0 46 -6q44 -12 72 -45q30 -36 30 -88
q0 -24 -7 -51zM330 462q-43 -53 -110 -132l70 -18z" />
    <glyph glyph-name="five" unicode="5" horiz-adv-x="558" 
d="M299 -37q-12 -1 -26 -1q-77 0 -146 31q-83 37 -90 98q-5 38 19 68.5t62 35.5q25 3 78 -23t83 -22q32 4 50.5 31t18.5 66q0 95 -81 85q-22 -3 -53.5 -23.5t-59.5 -23.5q-36 -5 -62.5 15t-29.5 46q-1 10 -1 37l-1 213q-1 64 19 93t68 35l240 30q42 5 72.5 -16t35.5 -60
q1 -9 1 -18q0 -48 -34 -73q-22 -16 -49 -20l-166 -20v-50q39 11 74 11q90 0 154 -60t75 -150q4 -27 4 -53q0 -116 -64 -190q-67 -77 -191 -92z" />
    <glyph glyph-name="six" unicode="6" horiz-adv-x="579" 
d="M304 489l4 1q19 3 37 3q100 0 170 -79q67 -75 67 -176q0 -98 -63 -174q-65 -79 -171 -96q-25 -4 -49 -4q-104 0 -178 67q-72 64 -88 163q-3 19 -3 40q0 116 71 276q69 156 147 227q15 13 42 17q32 5 68 -20t42 -61q4 -27 -36 -93q-30 -45 -60 -91zM235 243q0 -38 22 -62
q24 -27 61 -22q58 10 58 73q0 34 -18.5 59.5t-51.5 25.5q-32 0 -51.5 -21t-19.5 -53z" />
    <glyph glyph-name="seven" unicode="7" horiz-adv-x="551" 
d="M552 521l-324 -459q-28 -41 -43 -54q-24 -20 -55 -20q-10 0 -21 2q-48 7 -74 44q-23 32 -17 67q3 22 20 44l296 396l-212 34q-85 13 -85 92q0 41 25.5 68t67.5 27q10 0 21 -2l358 -56q46 -8 68 -47q18 -32 12 -64q-3 -25 -37 -72z" />
    <glyph glyph-name="eight" unicode="8" horiz-adv-x="580" 
d="M314 -36q-113 -8 -197 57.5t-92 175.5q-7 110 78 182q-63 53 -69 136q-6 97 61 163q64 63 165 70q98 7 171 -46q78 -56 85 -154q6 -82 -48 -144q92 -57 100 -169q8 -113 -69 -190q-72 -73 -185 -81zM272 566q-47 -3 -43 -54t50 -47q48 3 45 54q-4 51 -52 47zM291 301
q-66 -5 -61 -79q3 -33 21.5 -53t49.5 -18q29 2 46 25t15 55q-5 75 -71 70z" />
    <glyph glyph-name="nine" unicode="9" horiz-adv-x="584" 
d="M218 241l-5 1q-79 20 -126 88q-44 64 -44 146q0 34 8 67q24 88 97 145.5t166 57.5q37 0 75 -10q97 -27 153 -101q53 -70 53 -160q0 -37 -10 -75q-29 -107 -170 -241q-136 -130 -247 -166q-20 -7 -46 0t-47.5 37.5t-21.5 62.5q0 10 2 20q7 26 71 70zM320 551
q-53 0 -70 -61q-3 -14 -3 -27q0 -54 51 -67q9 -3 19 -3q52 0 69 61q3 13 3 26q0 31 -19.5 51t-49.5 20z" />
    <glyph glyph-name="colon" unicode=":" horiz-adv-x="274" 
d="M73 382q0 42 30 72.5t73 30.5q42 0 72.5 -30.5t30.5 -72.5q0 -43 -30.5 -73t-72.5 -30q-43 0 -73 30t-30 73zM-11 71q0 43 30.5 73t72.5 30q43 0 73 -30t30 -73q0 -42 -30 -72.5t-73 -30.5q-42 0 -72.5 30.5t-30.5 72.5z" />
    <glyph glyph-name="semicolon" unicode=";" horiz-adv-x="229" 
d="M119 287q-42 -5 -75.5 21.5t-38.5 68.5q-6 42 20.5 75.5t68.5 39.5q42 5 76 -21.5t39 -68.5t-21 -76t-69 -39zM235 53q-21 -59 -43 -119q-40 -89 -94 -96q-37 -4 -68 19t-36 60q-4 33 34 125q20 44 39 88q20 49 74 56q37 5 68.5 -18t35.5 -61q3 -23 -10 -54z" />
    <glyph glyph-name="less" unicode="&#x3c;" horiz-adv-x="589" 
d="M558 12q-24 -3 -62 7l-419 118q-65 18 -65 87q0 44 40 70l362 241q34 23 57 27q37 5 62 -23.5t25 -67.5q0 -41 -40 -66l-257 -158l293 -71q54 -13 62 -65q2 -10 2 -19q0 -70 -60 -80z" />
    <glyph glyph-name="equal" unicode="=" horiz-adv-x="618" 
d="M507 248l-405 64q-34 5 -53 27.5t-19 53.5q0 37 22.5 62.5t59.5 25.5q8 0 16 -1l405 -64q34 -6 53 -28t19 -54q0 -37 -22.5 -62.5t-59.5 -25.5q-8 0 -16 2zM472 26l-405 64q-34 6 -53 28t-19 54q0 37 22.5 62.5t59.5 25.5q8 0 16 -2l405 -64q34 -5 53 -27.5t19 -53.5
q0 -37 -22.5 -62.5t-59.5 -25.5q-8 0 -16 1z" />
    <glyph glyph-name="greater" unicode="&#x3e;" horiz-adv-x="576" 
d="M543 190l-381 -209q-34 -19 -59 -20q-32 -3 -54.5 20.5t-24.5 61.5q-4 53 46 78l269 135l-285 96q-53 18 -57 70q-3 39 16 65t51 28q23 2 61 -13l407 -153q53 -20 57 -76q4 -55 -46 -83z" />
    <glyph glyph-name="question" unicode="?" horiz-adv-x="516" 
d="M296 270l-5 -16q-18 -70 -90 -70q-14 0 -28 4q-73 19 -73 89q0 13 4 27l26 96q13 49 87 49h11.5h11.5q83 0 83 54q0 23 -19 39.5t-43 16.5t-68.5 -30t-73.5 -30q-11 0 -22 3q-62 17 -62 85q0 15 4 31q18 66 85 100q56 29 130 29q40 0 73 -9q88 -24 144 -86
q58 -65 58 -149q0 -32 -9 -64q-43 -162 -224 -169zM41 80q0 42 30.5 72.5t72.5 30.5q43 0 73 -30.5t30 -72.5q0 -43 -30 -73t-73 -30q-42 0 -72.5 30t-30.5 73z" />
    <glyph glyph-name="at" unicode="@" horiz-adv-x="801" 
d="M562 243q21 0 47 21q37 31 48 90q4 19 4 37q0 93 -86 158q-80 60 -176 60q-89 0 -159.5 -57.5t-87.5 -147.5q-5 -24 -5 -49q0 -89 57.5 -159.5t147.5 -87.5q49 -10 99 -10q74 0 116 22q53 27 72 24q50 -10 50 -57q0 -8 -1 -16q-6 -29 -47 -64q-82 -50 -193 -50
q-56 0 -123 13q-140 27 -229 138q-89 108 -89 248q0 38 7 75q27 140 138 229q108 89 248 89q152 0 273 -104q127 -109 127 -260q0 -29 -5 -58q-24 -121 -133 -180q-78 -41 -167 -41q-19 0 -30 2q-57 11 -74 48q-27 -17 -68 -17q-15 0 -31 3q-63 12 -101 69q-34 53 -34 120
q0 93 65 167q69 77 161 77q88 0 136 -56q19 22 52 22q12 0 24 -3q25 -5 42 -19q23 -19 18 -46q-3 -17 -12 -36l-74 -171q-5 -12 -7 -23zM396 422q-33 6 -59.5 -23t-26.5 -62q0 -52 48 -52q32 0 55 25.5t23 58.5q0 45 -40 53z" />
    <glyph glyph-name="A" unicode="A" horiz-adv-x="597" 
d="M524 -51q-59 5 -82 55q-6 13 -26 101l-241 21q-34 -82 -43 -94q-31 -46 -89 -41q-40 4 -67 33.5t-23 70.5q1 18 12 40l247 525q20 41 56.5 66t82.5 21q94 -8 121 -110l148 -559q7 -27 6 -46q-4 -40 -34 -63t-68 -20zM326 498q-21 -63 -75 -190l121 -10z" />
    <glyph glyph-name="B" unicode="B" horiz-adv-x="612" 
d="M455 408q51 0 95.5 -45t52.5 -110q2 -20 2 -39q0 -98 -62 -159t-166 -74l-204 -25q-45 -5 -78 18.5t-39 68.5l-68 557q-6 46 20 76.5t71 35.5l190 24q16 1 31 1q79 0 137 -47t68 -128q2 -15 2 -30q0 -75 -52 -124zM249 550l-53 -7l13 -99l52 6q56 7 49 61q-5 46 -61 39z
M311 273l-80 -10l14 -115l92 12q69 8 61 70q-5 45 -65 45q-10 0 -22 -2z" />
    <glyph glyph-name="C" unicode="C" horiz-adv-x="596" 
d="M299 -41q-141 22 -226 128q-83 103 -83 245q0 36 6 72q23 149 123.5 242.5t240.5 93.5q30 0 62 -5q74 -12 137 -50q80 -48 80 -109q0 -37 -25.5 -64.5t-62.5 -27.5q-26 0 -79 31q-38 22 -81 28q-13 2 -27 2q-65 0 -109 -48t-56 -128q-4 -23 -4 -45q0 -69 34 -115
q36 -49 100 -59q15 -2 29 -2q27 0 65.5 10t54.5 10q42 0 69.5 -33.5t20.5 -73.5q-9 -57 -75 -85q-53 -22 -129 -22q-35 0 -65 5z" />
    <glyph glyph-name="D" unicode="D" horiz-adv-x="680" 
d="M365 -27l-172 -30q-9 -2 -20 -2q-85 0 -99 82l-98 552q-1 10 -1 20q0 37 23 64t61 34l164 29q43 7 84 7q141 0 234.5 -87t120.5 -240q7 -41 7 -81q0 -135 -81.5 -229t-222.5 -119zM253 536l-65 -11l67 -380l75 13q133 23 133 163q0 25 -5 52q-30 167 -164 167
q-19 0 -41 -4z" />
    <glyph glyph-name="E" unicode="E" horiz-adv-x="485" 
d="M305 -43l-253 49q-37 7 -60.5 33.5t-23.5 63.5q0 10 3 21l105 540q18 92 98 92q12 0 24 -2l243 -47q39 -8 59 -33.5t20 -58.5q0 -39 -27 -67t-66 -28q-11 0 -21 2l-149 29l-18 -94l136 -27q39 -8 60 -33.5t21 -58.5q0 -40 -27.5 -67.5t-67.5 -27.5q-10 0 -21 2l-137 27
l-19 -100l157 -31q38 -7 58 -32.5t20 -58.5q0 -39 -26.5 -67t-66.5 -28q-10 0 -21 2z" />
    <glyph glyph-name="F" unicode="F" horiz-adv-x="463" 
d="M396 537l-159 13l-8 -95l129 -11q45 -4 70 -36q22 -28 19 -66q-3 -37 -30 -62q-30 -28 -75 -24l-130 12l-16 -193q-4 -47 -35 -72t-74 -22q-43 4 -69 34.5t-22 77.5l49 560q4 41 34.5 69t77.5 24l255 -22q43 -4 65 -34.5t18 -67.5q-3 -36 -28 -61q-28 -28 -71 -24z" />
    <glyph glyph-name="G" unicode="G" horiz-adv-x="738" 
d="M521 0q-74 -33 -151 -33q-110 0 -203 65t-143 177q-39 88 -39 178q0 108 55 194q57 91 161 137q93 42 186 42q124 0 156 -71q9 -22 9 -44q0 -56 -50 -79q-31 -13 -99 -3.5t-125 -16.5q-91 -40 -91 -144q0 -53 25 -109q60 -136 168 -136q58 0 105 40q51 41 51 98
q0 16 -5 34l-69 -31q-20 -9 -40 -9q-60 0 -85 57q-9 20 -9 40q0 58 58 84l155 69q30 13 56 13q62 0 97 -77q36 -83 36 -165q0 -100 -52 -181q-55 -83 -157 -129z" />
    <glyph glyph-name="H" unicode="H" horiz-adv-x="722" 
d="M629 0q-43 -5 -74.5 19.5t-36.5 70.5l-24 192l-262 -32l24 -192q1 -8 1 -16q0 -41 -24.5 -67.5t-63.5 -30.5q-43 -6 -74.5 18.5t-37.5 71.5l-69 563q-1 9 -1 17q0 40 24 66.5t64 31.5q43 5 74.5 -19.5t36.5 -70.5l23 -186l262 32l-23 186q-1 8 -1 16q0 41 24.5 67.5
t63.5 30.5q43 6 74.5 -18.5t37.5 -71.5l69 -563q1 -9 1 -17q0 -40 -24 -66.5t-64 -31.5z" />
    <glyph glyph-name="I" unicode="I" horiz-adv-x="247" 
d="M-25 71q0 10 2 20l89 561q6 41 32.5 64.5t63.5 23.5q44 0 73.5 -27.5t29.5 -71.5q0 -10 -2 -20l-89 -561q-6 -41 -32.5 -64.5t-63.5 -23.5q-44 0 -73.5 27.5t-29.5 71.5z" />
    <glyph glyph-name="J" unicode="J" horiz-adv-x="421" 
d="M238 -32q-25 -5 -53 -5q-66 0 -116 26q-62 32 -62 92q0 37 23 62t59 25q18 0 57 -10q34 -10 51 -7q26 5 26 31q0 4 -5 33l-75 423q-2 12 -2 23q0 43 29.5 70.5t73.5 27.5q36 0 62.5 -22.5t33.5 -63.5l76 -433q6 -32 6 -61q0 -95 -59 -152q-49 -46 -125 -59z" />
    <glyph glyph-name="K" unicode="K" horiz-adv-x="607" 
d="M452 -63q-42 9 -82 72l-167 270l-36 -187q-7 -35 -33.5 -57t-62.5 -22q-42 0 -72.5 27t-30.5 69q0 10 2 21l111 567q6 36 32.5 58t62.5 22q43 0 73 -27t30 -69q0 -11 -2 -22l-29 -150l240 173q31 23 63 23q40 0 69.5 -28.5t29.5 -68.5q0 -10 -2 -19q-8 -42 -74 -85
l-200 -133l167 -260q32 -50 32 -83q0 -9 -2 -18q-14 -75 -94 -75q-12 0 -25 2z" />
    <glyph glyph-name="L" unicode="L" horiz-adv-x="414" 
d="M339 -35l-249 22q-47 4 -72 36t-21 80l48 556q4 46 35 71.5t74 21.5q43 -3 69 -33.5t22 -77.5l-42 -475l152 -13q43 -4 66 -30.5t23 -61.5q0 -41 -27 -69q-30 -31 -78 -27z" />
    <glyph glyph-name="M" unicode="M" horiz-adv-x="935" 
d="M450 319q-18 95 -51 340q-1 7 -1 15q0 35 20.5 68t57.5 49q24 11 51 11q67 0 101 -51q85 -119 171 -239q103 -143 150 -251q10 -21 10 -42q0 -60 -59 -86q-27 -12 -49 -12q-48 0 -82 53l-167 266q21 -110 53 -333q1 -9 1 -18q0 -65 -65 -94q-25 -11 -49 -11q-45 0 -77 38
l-219 261q34 -99 92 -301q6 -22 6 -40q0 -57 -63 -85q-20 -9 -42 -9q-60 0 -86 58q-48 108 -86 280l-64 288q-3 11 -3 24q0 34 20 66.5t56 48.5q25 11 52 11q61 0 98 -43z" />
    <glyph glyph-name="N" unicode="N" horiz-adv-x="709" 
d="M485 337q-20 80 -50 317q-1 9 -1 18q0 39 24.5 65t63.5 31q43 5 74.5 -19t37.5 -71l69 -564q1 -8 1 -16q0 -40 -24 -66.5t-64 -31.5q-20 -3 -45.5 6.5t-41.5 25.5l-329 339q20 -80 50 -313q1 -9 1 -18q0 -39 -24.5 -65t-63.5 -31q-43 -5 -74.5 19t-37.5 71l-69 564
q-1 8 -1 16q0 40 24 66.5t64 31.5q20 3 46 -6.5t41 -25.5z" />
    <glyph glyph-name="O" unicode="O" horiz-adv-x="733" 
d="M300 -32q-142 22 -227 128q-82 103 -82 246q0 35 6 72q23 148 123.5 241.5t239.5 93.5q31 0 62 -5q141 -22 225 -128.5t84 -247.5q0 -35 -6 -70q-23 -147 -123 -241t-240 -94q-31 0 -62 5zM393 558q-13 3 -26 3q-66 0 -110 -50t-57 -130q-4 -25 -4 -50q0 -71 34 -119
t99 -58q14 -3 27 -3q66 0 111 51q42 48 55 129q4 24 4 48q0 71 -33 119q-36 50 -100 60z" />
    <glyph glyph-name="P" unicode="P" horiz-adv-x="549" 
d="M331 214l-85 -15l24 -137q2 -11 2 -22q0 -44 -29.5 -71t-73.5 -27q-36 0 -62.5 22.5t-33.5 63.5l-98 553q-2 11 -2 22q0 82 86 97l174 31q30 5 59 5q101 0 173.5 -58t90.5 -158q4 -26 4 -50q0 -99 -64.5 -168.5t-164.5 -87.5zM262 551l-76 -13l28 -160l76 14q64 11 64 75
q0 36 -19 60q-22 26 -57 26q-8 0 -16 -2z" />
    <glyph glyph-name="Q" unicode="Q" horiz-adv-x="737" 
d="M467 -22q-47 -14 -97 -14q-40 0 -80 8q-137 27 -218 131q-78 101 -78 238q0 44 8 87q28 144 128 233.5t235 89.5q37 0 75 -7q135 -26 216 -133q79 -102 79 -239q0 -42 -8 -84q-25 -127 -101 -211q20 -26 41 -52q21 -32 21 -61q0 -37 -28 -61.5t-66 -24.5t-73 35
q-7 6 -54 65zM335 155q-20 30 -14 61q6 34 31 56.5t60 22.5q9 0 19 -2q29 -6 67 -49q32 65 32 140q0 68 -31 114q-34 49 -95 61q-16 3 -32 3q-63 0 -107.5 -47.5t-59.5 -125.5q-6 -31 -6 -60q0 -70 33 -115q35 -48 103 -59z" />
    <glyph glyph-name="R" unicode="R" horiz-adv-x="587" 
d="M202 239q3 -52 -6 -159q-2 -47 -33.5 -72.5t-75.5 -21.5q-43 4 -69 34.5t-21 76.5l49 560q4 47 33.5 72.5t76.5 21.5l175 -15q119 -11 184 -69q69 -62 69 -172q0 -16 -1 -33q-7 -78 -59 -128q-47 -46 -121 -61l127 -162q24 -31 21 -63q-3 -40 -34 -68.5t-74 -24.5
q-48 4 -74 42zM315 548l-78 7l-11 -126l78 -7q68 -6 73 58q6 62 -62 68z" />
    <glyph glyph-name="S" unicode="S" horiz-adv-x="551" 
d="M262 -37q-89 0 -166 29q-102 38 -102 108q0 39 25.5 67.5t66.5 28.5q29 0 83.5 -19.5t84.5 -19.5q77 0 77 61q0 30 -87 55q-117 33 -160 61q-87 56 -87 163q0 114 83 185q78 67 190 67q67 0 135 -28q86 -37 86 -97q0 -39 -25 -69t-67 -30q-23 0 -66 15t-67 15
q-57 0 -57 -40q0 -21 87 -46q110 -31 160 -68q87 -64 87 -181q0 -116 -85 -189q-80 -68 -196 -68z" />
    <glyph glyph-name="T" unicode="T" horiz-adv-x="448" 
d="M399 570l-84 -10l59 -474q1 -8 1 -16q0 -40 -24.5 -66.5t-63.5 -31.5q-43 -5 -74.5 19t-37.5 71l-58 473l-84 -10q-45 -5 -74 22q-25 23 -29 60q-5 37 17 68.5t64 36.5l365 45q42 5 72 -21q27 -24 32 -61q4 -37 -14 -66q-22 -33 -67 -39z" />
    <glyph glyph-name="U" unicode="U" horiz-adv-x="689" 
d="M282 -32q-121 19 -200 107.5t-79 207.5q0 26 4 52l56 353q6 41 33 64t64 23q43 0 72.5 -27t29.5 -71q0 -10 -2 -20l-54 -345q-2 -15 -2 -29q0 -56 35.5 -93.5t91.5 -37.5q49 0 84.5 34t44.5 86l54 344q7 42 33.5 65t63.5 23q44 0 73 -27.5t29 -71.5q0 -10 -1 -20
l-56 -353q-19 -119 -110.5 -193.5t-210.5 -74.5q-26 0 -53 4z" />
    <glyph glyph-name="V" unicode="V" horiz-adv-x="541" 
d="M565 651l-119 -586q-16 -78 -83 -90q-11 -2 -21 -2q-52 0 -87 58l-313 510q-18 30 -18 61q0 40 31 69t71 29q49 0 84 -49l191 -326l69 372q23 80 96 80q36 0 64.5 -21t35.5 -58q4 -24 -1 -47z" />
    <glyph glyph-name="W" unicode="W" horiz-adv-x="927" 
d="M649 267q34 100 127 327q28 73 95 73q12 0 25 -3q36 -7 57 -33t21 -58q0 -8 -1 -16q-4 -20 -12 -38l-229 -512q-34 -75 -112 -75q-14 0 -28 3q-43 8 -71 40t-32 72l-34 335q-38 -87 -149 -299q-34 -68 -112 -68q-13 0 -26 2q-48 10 -76 45q-25 32 -26 74l-21 561
q-1 20 3 39q6 31 31.5 52t60.5 21q10 0 20 -2q84 -16 85 -110l2 -351q46 102 166 334q29 58 93 58q43 0 73 -27.5t34 -69.5z" />
    <glyph glyph-name="X" unicode="X" horiz-adv-x="623" 
d="M497 -49q-50 4 -78 50l-126 212l-160 -187q-35 -40 -86 -36q-42 4 -69 32.5t-23 71.5q3 36 27 63l209 234l-133 218q-18 30 -16 60q4 44 35.5 68.5t73.5 20.5q52 -5 81 -55l91 -155l116 137q37 45 89 40q42 -4 69 -33.5t23 -72.5q-3 -31 -26 -57l-168 -191l164 -267
q19 -31 16 -67q-3 -43 -34.5 -66.5t-74.5 -19.5z" />
    <glyph glyph-name="Y" unicode="Y" horiz-adv-x="466" 
d="M438 694l-63 -312l105 -237q10 -21 10 -44q0 -59 -61 -86q-24 -11 -46 -11q-59 0 -86 60l-105 236l-274 162q-50 30 -50 88q0 62 58 88q21 10 43 10q27 0 49 -14l185 -113l40 214q6 34 35 56.5t64 22.5q62 0 88 -58q14 -31 8 -62z" />
    <glyph glyph-name="Z" unicode="Z" horiz-adv-x="590" 
d="M544 3l-390 -48q-9 -2 -18 -2q-42 0 -69.5 23t-32.5 62q-5 37 15 75l242 443l-213 -26q-39 -5 -68 14q-32 21 -37 62q-5 39 20 69.5t63 34.5l363 45q10 1 18 1q44 0 71 -24.5t31 -59.5q5 -41 -17 -81l-240 -437l240 29q41 5 70 -14q32 -22 37 -64q5 -39 -21.5 -68.5
t-63.5 -33.5z" />
    <glyph glyph-name="bracketleft" unicode="[" horiz-adv-x="331" 
d="M144 -183l-99 16q-38 6 -60.5 31t-22.5 62q0 9 1 18l115 725q6 38 31.5 60t61.5 22q10 0 19 -1l99 -16q66 -11 66 -76q0 -8 -2 -17q-11 -70 -75 -70q-7 0 -15 1l-22 3l-93 -592l21 -4q66 -10 66 -75q0 -9 -1 -18q-12 -70 -76 -70q-7 0 -14 1z" />
    <glyph glyph-name="backslash" unicode="\" horiz-adv-x="444" 
d="M387 -9q-41 0 -68 39l-370 560q-14 21 -17 36q-1 7 -1 14q0 35 26.5 58t61.5 23q43 0 69 -39l370 -561q15 -23 17 -35q1 -7 1 -14q0 -35 -27 -58t-62 -23z" />
    <glyph glyph-name="bracketright" unicode="]" horiz-adv-x="292" 
d="M161 -179h-100q-33 0 -55.5 21t-22.5 61t22.5 61t55.5 21h22v600h-22q-33 0 -55.5 21t-22.5 61t22.5 61t55.5 21h100q43 0 70.5 -27t27.5 -70v-734q0 -43 -27.5 -70t-70.5 -27z" />
    <glyph glyph-name="asciicircum" unicode="^" horiz-adv-x="549" 
d="M476 290q-48 0 -72 34l-104 191l-104 -191q-24 -34 -72 -34q-30 0 -51 15q-25 17 -25 50q0 23 16 52l161 293q24 43 75 43t75 -43l161 -293q16 -29 16 -52q0 -33 -25 -50q-21 -15 -51 -15z" />
    <glyph glyph-name="underscore" unicode="_" horiz-adv-x="517" 
d="M500 -150h-500q-21 0 -36 12q-18 14 -18 38t18 38q15 12 36 12h500q21 0 37.5 -13t16.5 -37t-16.5 -37t-37.5 -13z" />
    <glyph glyph-name="grave" unicode="`" horiz-adv-x="242" 
d="M181 573h-10q-9 0 -39 12l-112 44q-57 22 -57 82q0 30 22.5 58.5t56.5 28.5q18 0 47 -12l128 -53q42 -20 42 -62q0 -34 -20 -64q-23 -34 -58 -34z" />
    <glyph glyph-name="a" unicode="a" horiz-adv-x="584" 
d="M526 19q-13 -3 -26 -3q-34 0 -59 26q-43 -59 -114 -75q-29 -7 -58 -7q-94 0 -167.5 66.5t-99.5 175.5q-9 40 -9 80q0 101 54 177.5t143 97.5q25 6 49 6q47 0 87 -21q18 44 66 56q16 3 30 3q66 0 89 -98l80 -347q7 -32 7 -53q0 -68 -72 -84zM187 286q0 -20 4 -41
q10 -43 36 -71t60 -28q39 0 60 31q20 27 20 68q0 19 -5 40q-10 44 -36 72.5t-59 28.5q-39 0 -59.5 -29.5t-20.5 -70.5z" />
    <glyph glyph-name="b" unicode="b" 
d="M223 -31q-72 17 -112 72q-25 -23 -60 -23q-12 0 -25 3q-35 8 -55 34t-20 62q0 14 4 28l138 600q9 38 35 61t60 23q12 0 23 -3q35 -8 55 -34.5t20 -61.5q0 -14 -4 -28l-33 -145q56 15 115 2q96 -23 147 -103q44 -70 44 -168q0 -45 -10 -89q-23 -98 -94 -165
q-76 -71 -172 -71q-28 0 -56 6zM300 387q-10 2 -19 2q-33 0 -58 -26.5t-35 -70.5q-5 -22 -5 -43q0 -41 18 -68q22 -32 60 -32q45 0 75 48q26 42 26 91q0 84 -62 99z" />
    <glyph glyph-name="c" unicode="c" horiz-adv-x="485" 
d="M294 -34q-125 -7 -210 79q-82 83 -89 207q-6 122 68 215q77 97 199 104q65 3 127 -21q77 -30 80 -85q2 -32 -16 -61q-22 -35 -59 -37q-20 -1 -57.5 11t-57.5 11q-45 -2 -69 -38t-21 -89q3 -49 31.5 -83t70.5 -31q19 1 53.5 17.5t52.5 17.5q35 2 62 -22.5t29 -60.5
q3 -58 -73 -98q-60 -33 -121 -36z" />
    <glyph glyph-name="d" unicode="d" horiz-adv-x="575" 
d="M425 -46q-53 5 -76 46q-55 -40 -128 -34q-109 10 -175 99q-62 82 -62 191q0 121 68 213q75 102 193 102q74 0 133 -38l13 148q4 45 33.5 72.5t72.5 23.5q42 -3 66.5 -35.5t20.5 -77.5l-54 -613q-4 -45 -33.5 -72.5t-71.5 -24.5zM277 387q-39 3 -66 -30.5t-32 -83.5
q-4 -49 17 -85q21 -39 60 -42q40 -4 67 30t31 87q5 50 -16 85t-61 39z" />
    <glyph glyph-name="e" unicode="e" horiz-adv-x="582" 
d="M477 261l-259 -90q26 -26 67 -26q23 0 48 9q34 12 74 56t61 52q12 4 24 4q35 0 61.5 -25t26.5 -59q0 -55 -68 -117q-61 -57 -134 -82q-52 -18 -104 -18q-93 0 -166.5 56t-106.5 152q-18 51 -18 106q0 92 47 165q51 78 139 108q44 15 89 15q92 0 171 -59q75 -55 102 -135
q7 -20 7 -38q0 -53 -61 -74zM225 392q-58 -20 -59 -84l157 54q-27 35 -67 35q-15 0 -31 -5z" />
    <glyph glyph-name="f" unicode="f" horiz-adv-x="370" 
d="M263 374l-20 1l-22 -306q-3 -45 -32 -73t-72 -25t-67.5 34.5t-21.5 76.5l21 307h-7q-39 3 -61.5 28.5t-19.5 65.5q2 37 29 60.5t64 21.5l7 -1l4 49q6 87 58 134.5t131 41.5q124 -8 118 -98q-6 -86 -90 -80q-23 1 -25 -26l-2 -34l20 -2q98 -7 92 -94q-4 -45 -33.5 -64.5
t-70.5 -16.5z" />
    <glyph glyph-name="g" unicode="g" horiz-adv-x="566" 
d="M396 19q-35 -42 -108 -59q-30 -6 -58 -6q-116 0 -192 108q-68 97 -68 217q0 99 49 173q53 80 147 102q22 5 45 5q49 0 87 -20q17 43 68 55q12 3 23 3q35 0 61 -23t34 -60l94 -406q10 -41 10 -80q0 -102 -64.5 -171t-175.5 -94q-32 -8 -81 -8q-69 0 -120 17q-76 24 -76 79
q0 28 17.5 55.5t44.5 33.5q13 3 28 3q16 0 53.5 -5.5t59.5 -5.5q24 0 45 5q76 17 77 82zM163 283q0 -19 5 -38q23 -102 94 -102q39 0 62 30q20 26 20 67q0 19 -5 39q-10 46 -36 75t-60 29q-39 0 -60 -32q-20 -28 -20 -68z" />
    <glyph glyph-name="h" unicode="h" horiz-adv-x="539" 
d="M248 555q45 15 111 0q79 -18 126.5 -73t47.5 -132q0 -28 -7 -58l-62 -269q-9 -38 -35 -60.5t-60 -22.5q-11 0 -23 2q-35 8 -54.5 34.5t-19.5 61.5q0 14 3 29l56 244q3 13 3 24q0 30 -20.5 48t-50.5 18q-50 0 -64 -59l-57 -245q-8 -37 -34 -60t-61 -23q-11 0 -23 3
q-34 8 -54 34t-20 61q0 14 3 29l139 600q9 38 35 60.5t60 22.5q11 0 23 -2q35 -8 54.5 -34.5t19.5 -61.5q0 -14 -3 -29z" />
    <glyph glyph-name="i" unicode="i" horiz-adv-x="234" 
d="M101 567q-43 -3 -76 28t-36 74q-2 41 28.5 74t72.5 35q42 3 75.5 -26.5t35.5 -71.5q2 -44 -27 -77.5t-73 -35.5zM132 -30q-43 -3 -71.5 25.5t-30.5 73.5l-20 384q-3 45 22.5 76t68.5 34q43 2 71.5 -26.5t30.5 -73.5l21 -384q2 -45 -23.5 -76t-68.5 -33z" />
    <glyph glyph-name="j" unicode="j" horiz-adv-x="238" 
d="M137 566q-43 4 -71.5 39t-24.5 78q3 41 37.5 69.5t77.5 24.5q42 -4 71 -37.5t25 -75.5q-4 -44 -37.5 -73t-77.5 -25zM66 -241q-42 4 -66.5 36t-20.5 77l52 594q4 45 33.5 72.5t72.5 23.5t67 -36t20 -77l-52 -594q-4 -45 -33.5 -72.5t-72.5 -23.5z" />
    <glyph glyph-name="k" unicode="k" horiz-adv-x="601" 
d="M270 177q19 -38 43 -106q8 -20 8 -41q0 -67 -66 -90q-16 -6 -32 -6q-69 0 -94 74l-200 582q-7 20 -7 40q0 69 64 91q16 6 33 6q68 0 93 -74l90 -262l73 144q34 67 92 67q37 0 63.5 -28t26.5 -65q0 -25 -16 -52l-71 -128l203 -120q48 -28 48 -83q0 -66 -62 -88
q-14 -4 -28 -4q-31 0 -73 26z" />
    <glyph glyph-name="l" unicode="l" horiz-adv-x="231" 
d="M82 -30q-43 3 -67.5 34.5t-21.5 77.5l43 614q3 45 32 73t72 25t67.5 -34.5t21.5 -77.5l-43 -614q-3 -45 -32 -73t-72 -25z" />
    <glyph glyph-name="m" unicode="m" horiz-adv-x="876" 
d="M798 47q-11 -3 -23 -3q-34 0 -60 23t-35 61l-56 244q-14 61 -60 61q-27 0 -43 -17.5t-16 -44.5q0 -12 3 -26l56 -244q4 -15 4 -29q0 -35 -20 -61t-55 -34q-11 -3 -23 -3q-34 0 -60 23t-35 60l-56 245q-14 60 -60 60q-60 0 -60 -58q0 -13 4 -29l56 -245q4 -14 4 -28
q0 -35 -20 -61.5t-54 -34.5q-12 -2 -24 -2q-34 0 -60 22.5t-35 60.5l-86 374q-3 14 -3 28q0 36 19.5 62t54.5 34q13 3 25 3q34 0 57 -21q61 75 161 75q59 0 110 -32q54 75 134 94q32 7 63 7q75 0 129 -44t73 -127l62 -269q4 -14 4 -28q0 -36 -20 -62t-55 -34z" />
    <glyph glyph-name="n" unicode="n" horiz-adv-x="571" 
d="M371 -60q-34 8 -54 34t-20 61q0 14 3 29l57 244q3 13 3 25q0 30 -21 47.5t-51 17.5q-50 0 -64 -59l-56 -245q-9 -37 -35 -60t-60 -23q-12 0 -23 3q-35 8 -54.5 34t-19.5 61q0 15 3 29l86 374q9 38 35 60.5t60 22.5q64 0 88 -51q33 16 75 16q28 0 61 -8q79 -18 126.5 -73
t47.5 -132q0 -28 -6 -58l-63 -269q-8 -38 -34 -60.5t-61 -22.5q-11 0 -23 3z" />
    <glyph glyph-name="o" unicode="o" horiz-adv-x="574" 
d="M294 -37q-125 -6 -210 80q-82 83 -89 207q-6 122 68 215q77 97 199 104q123 6 209 -83q83 -84 90 -206q6 -125 -66 -215q-76 -95 -201 -102zM272 387q-41 -2 -63.5 -38.5t-19.5 -88.5q3 -50 29 -83.5t66 -31.5q41 2 63.5 38t19.5 87t-28.5 85t-66.5 32z" />
    <glyph glyph-name="p" unicode="p" horiz-adv-x="589" 
d="M299 -38q-55 5 -104 37l-11 -128q-4 -45 -33.5 -72.5t-72.5 -23.5q-42 3 -66.5 35.5t-20.5 77.5l52 593q4 45 33.5 72.5t72.5 24.5q52 -5 75 -46q55 40 133 33q113 -10 176 -102q55 -81 55 -194q0 -127 -78 -219q-85 -99 -211 -88zM318 386q-41 4 -67.5 -27t-30.5 -82
q-5 -52 15.5 -90t60.5 -42q39 -3 66 30t32 82q4 50 -17 88t-59 41z" />
    <glyph glyph-name="q" unicode="q" horiz-adv-x="604" 
d="M583 -161q-16 -5 -32 -5q-69 0 -94 73l-42 121q-68 -74 -171 -74q-89 0 -164 62q-71 58 -101 146q-22 63 -22 128q0 85 38 149q43 71 126 100q35 12 72 12q36 0 66 -12q12 45 62 62q16 6 32 6q68 0 94 -73l194 -564q7 -20 7 -40q0 -69 -65 -91zM203 375q-52 -18 -52 -89
q0 -27 10 -55q13 -39 40 -64t58 -25q12 0 23 4q53 18 53 87q0 29 -11 60q-29 86 -95 86q-13 0 -26 -4z" />
    <glyph glyph-name="r" unicode="r" horiz-adv-x="382" 
d="M214 525q32 35 93 31q38 -3 63 -30q27 -31 24 -78q-3 -44 -49 -66l-86 -30q-46 -20 -49 -58l-15 -220q-4 -45 -33 -73t-72 -25q-42 3 -67 34.5t-22 76.5l27 391q4 46 38 71q30 22 68 19q59 -4 80 -43z" />
    <glyph glyph-name="s" unicode="s" horiz-adv-x="466" 
d="M279 -30q-31 -7 -70 -7q-64 0 -114 21q-68 27 -68 83q0 29 15 54q18 30 51 37q13 3 26 3q20 0 54.5 -10t53.5 -10q11 0 22 3q32 7 28 23q-2 8 -70 17q-85 10 -131 32q-75 35 -92 110q-6 23 -6 45q0 90 77 147q70 52 163 52q63 0 108 -22q60 -28 60 -84q0 -35 -23 -61
t-56 -26q-15 0 -50 7.5t-52 7.5q-23 0 -34 -8q-7 -5 -5 -14t71 -17q85 -11 131 -32q75 -36 92 -110q5 -21 5 -42q0 -71 -50.5 -125t-135.5 -74z" />
    <glyph glyph-name="t" unicode="t" horiz-adv-x="372" 
d="M266 356l-15 4l-69 -299q-9 -38 -35 -60.5t-61 -22.5q-11 0 -23 2q-34 8 -54 34.5t-20 61.5q0 14 3 28l70 300l-7 1q-69 16 -69 82q0 12 3 24q7 31 30.5 49.5t53.5 18.5q11 0 21 -2l7 -2l14 60q9 37 34.5 60t60.5 23q11 0 23 -3q35 -8 54.5 -34t19.5 -62q0 -14 -3 -28
l-14 -60l16 -3q74 -17 74 -83q0 -11 -2 -24q-16 -68 -85 -68q-13 0 -27 3z" />
    <glyph glyph-name="u" unicode="u" 
d="M294 -37q-122 -6 -195.5 53.5t-78.5 167.5l-14 260q-2 45 23.5 76.5t68.5 33.5q42 2 71 -26.5t31 -73.5l13 -256q2 -32 22.5 -49t49.5 -16q28 2 47 21t17 51l-13 256q-3 45 22.5 76.5t68.5 33.5t71.5 -26t30.5 -74l14 -259q6 -109 -60.5 -175.5t-188.5 -73.5z" />
    <glyph glyph-name="v" unicode="v" horiz-adv-x="494" 
d="M234 271q24 69 86 217q26 66 93 60q40 -3 66 -29q30 -30 26 -74q-2 -24 -15 -50l-177 -358q-36 -73 -108 -67q-71 6 -94 85l-112 383q-8 28 -6 52q3 44 37 68q31 21 70 18q66 -6 82 -76z" />
    <glyph glyph-name="w" unicode="w" horiz-adv-x="734" 
d="M537 330q-8 71 -14 217q-5 78 62 101q19 6 36 6q65 0 87 -65q6 -17 6 -63l-4 -369q0 -95 -75 -120q-19 -7 -38 -7q-52 0 -90 52l-106 141q6 -60 9 -175q4 -87 -74 -114q-19 -7 -37 -7q-53 0 -96 56l-228 286q-31 39 -40 67q-5 12 -5 25q0 36 31.5 63t68.5 27q47 0 80 -46
l128 -177q-7 69 -11 211q-5 84 65 108q18 6 35 6q46 0 83 -51z" />
    <glyph glyph-name="x" unicode="x" horiz-adv-x="527" 
d="M408 -43q-46 3 -76 47l-91 129l-108 -115q-37 -39 -82 -36q-42 3 -67 31.5t-22 70.5q3 44 85 126q44 38 87 77q-35 42 -70 83q-55 74 -52 115q2 39 36 65q31 26 69 23q43 -3 70 -42l74 -107l88 95q33 36 75 33q38 -3 66.5 -33t25.5 -69q-2 -41 -67 -107q-41 -36 -81 -72
q37 -45 75 -89q70 -92 67 -137q-3 -42 -31.5 -66.5t-70.5 -21.5z" />
    <glyph glyph-name="y" unicode="y" horiz-adv-x="437" 
d="M432 481l-100 -639q-12 -77 -72 -91q-15 -4 -29 -4q-33 0 -57.5 18.5t-30.5 47.5q-3 11 -3 28q0 40 13 113q7 34 13 68l-238 343q-21 30 -21 60q0 32 24 58q21 24 49 30q13 3 25 3q52 0 83 -47l121 -186l33 222q6 38 32.5 63.5t63.5 25.5q31 0 56 -16q29 -19 36 -50
q6 -24 2 -47z" />
    <glyph glyph-name="z" unicode="z" horiz-adv-x="524" 
d="M335 -55l-326 76q-67 15 -67 73q0 38 31 66l255 227l-115 26q-31 8 -51 30.5t-20 53.5q0 11 3 22q16 69 85 69q11 0 22 -3l319 -74q57 -13 57 -65q0 -9 -2 -19q-7 -29 -33 -52l-256 -226l138 -32q31 -7 50.5 -29.5t19.5 -54.5q0 -11 -2 -22q-16 -68 -85 -68q-11 0 -23 2z
" />
    <glyph glyph-name="braceleft" unicode="{" horiz-adv-x="347" 
d="M189 286q49 -24 53 -99l10 -188q2 -33 21 -32l25 1q30 1 51 -16.5t22 -49.5q2 -33 -17 -52.5t-49 -21.5l-62 -3q-158 -8 -166 147l-10 194q-2 33 -27 42q-23 5 -47 11q-25 12 -28 56q-1 29 15 50q20 25 54 27q23 1 21 42l-10 194q-8 155 150 164l62 3q30 1 50.5 -16.5
t22.5 -49.5q2 -33 -17 -52.5t-49 -21.5l-25 -1q-19 -1 -17 -34l10 -189q3 -72 -43 -105z" />
    <glyph glyph-name="bar" unicode="|" horiz-adv-x="235" 
d="M60 -333q-38 4 -59.5 29.5t-17.5 62.5l87 997q3 37 28.5 58.5t63.5 18.5q38 -4 59.5 -29.5t17.5 -62.5l-87 -997q-3 -37 -28.5 -58.5t-63.5 -18.5z" />
    <glyph glyph-name="braceright" unicode="}" horiz-adv-x="374" 
d="M145 275q-53 10 -78 81l-61 178q-11 32 -29 25l-24 -8q-13 -4 -26 -4q-46 0 -63 48q-4 13 -4 26q0 46 48 63l58 20q37 13 69 13q94 0 131 -109l64 -184q11 -33 26 -33q4 0 15.5 3.5t19.5 3.5q30 0 50.5 -23t20.5 -53q0 -50 -50 -67q-14 -5 -14 -19q0 -10 6 -27l63 -184
q12 -36 12 -66q0 -94 -111 -133l-58 -20q-13 -4 -26 -4q-47 0 -63 48q-5 13 -5 26q0 46 48 63l24 8q12 4 12 15q0 8 -5 22l-61 179q-10 27 -10 50q0 35 21 62z" />
    <glyph glyph-name="asciitilde" unicode="~" horiz-adv-x="592" 
d="M398 127q-44 3 -116 42t-90 40q-19 2 -52.5 -26.5t-62.5 -26.5q-36 3 -52 30q-13 21 -11 49q4 60 54 103q55 47 134 41q44 -3 116 -42t90 -40q19 -2 52.5 26.5t62.5 26.5q36 -3 52 -30q13 -21 11 -49q-4 -60 -54 -103q-55 -47 -134 -41z" />
    <glyph glyph-name="dagger" unicode="&#x2020;" horiz-adv-x="609" 
d="M543 363l-139 -7l26 -500q2 -43 -22.5 -69.5t-66.5 -28.5q-42 -3 -69.5 21t-29.5 68l-26 499l-139 -7q-37 -2 -60.5 21t-25.5 62t19 64.5t58 27.5l139 8l-7 128q-2 43 22.5 69.5t66.5 28.5q42 3 69.5 -21t29.5 -68l7 -127l138 7q37 2 61 -21.5t26 -62.5t-19.5 -64.5
t-57.5 -27.5z" />
    <glyph glyph-name="cent" unicode="&#xa2;" horiz-adv-x="511" 
d="M411 7q8 -24 8 -40q0 -33 -34 -45q-11 -3 -20 -3q-34 0 -53 55l-1 5q-18 -2 -35 -2q-92 0 -163.5 58.5t-105.5 154.5q-18 53 -18 108q0 158 130 239l-3 7q-9 27 -9 42q0 31 35 43q12 4 22 4q31 0 50 -55q31 6 63 6q134 0 134 -98q0 -64 -50 -81q-13 -5 -28 -5
q-11 -1 -30 0t-28 0l75 -217q23 21 63 47q14 5 28 5q36 0 62 -25.5t26 -60.5q0 -42 -39 -83q-32 -35 -79 -59zM187 337q-12 -39 5 -88q15 -44 49 -68z" />
    <glyph glyph-name="sterling" unicode="&#xa3;" horiz-adv-x="629" 
d="M79 464q-11 49 -9 83q7 100 97 155q82 52 195 44q112 -8 189 -67q81 -63 74 -150q-3 -45 -34 -71t-75 -22q-42 2 -79.5 57.5t-82.5 58.5q-32 2 -52 -11t-22 -36q-2 -24 14 -55l137 -10q41 -2 67 -29.5t23 -70.5t-32.5 -66.5t-70.5 -20.5l-105 7q-9 -50 -37 -95l233 -17
q41 -3 67 -30.5t23 -69.5q-3 -43 -32.5 -66.5t-71.5 -20.5l-391 27q-46 3 -72 33.5t-23 76.5q1 21 45 74t53 103l-26 1q-41 3 -67 30.5t-23 70.5q3 39 27.5 62t60.5 25z" />
    <glyph glyph-name="section" unicode="&#xa7;" horiz-adv-x="588" 
d="M520 114q43 -39 55 -89q5 -25 5 -48q0 -78 -56 -136q-52 -54 -132 -73q-37 -8 -79 -8q-82 0 -144 29q-70 33 -83 89q-2 12 -2 23q0 39 29.5 69.5t68.5 30.5q27 0 69 -30.5t67 -30.5q20 0 39.5 13t15.5 30q-7 30 -93 42q-121 16 -164 34q-93 39 -115 134q-7 31 -7 58
q0 65 45 130q-47 37 -59 92q-6 25 -6 50q0 79 57 137q53 55 138 75q41 9 90 9q80 0 139 -28q77 -37 77 -109q0 -32 -19.5 -59.5t-50.5 -34.5q-10 -2 -20 -2q-28 0 -73.5 26t-68.5 26q-22 0 -38.5 -13t-16.5 -33q0 -27 45 -36q66 -11 131 -21q84 -15 131 -42q62 -37 77 -103
q7 -30 7 -57q0 -72 -59 -144zM308 286l-103 15q-18 -25 -13 -46q7 -28 45 -35l122 -21q23 25 17 50q-6 28 -68 37z" />
    <glyph glyph-name="bullet" unicode="&#x2022;" horiz-adv-x="472" 
d="M204 158q-69 16 -113 72t-44 126q0 23 5 46q16 69 72 113t126 44q23 0 46 -5q69 -16 113 -72t44 -126q0 -23 -5 -46q-16 -69 -72 -113t-126 -44q-23 0 -46 5z" />
    <glyph glyph-name="paragraph" unicode="&#xb6;" horiz-adv-x="637" 
d="M540 -225q-38 -2 -62.5 20.5t-26.5 60.5l-39 748l-47 -3l39 -748q2 -37 -20.5 -62t-60.5 -27t-62.5 20.5t-26.5 59.5l-26 490q-104 0 -166 47.5t-66 136.5q-11 202 260 217l253 13q38 2 63 -20.5t27 -60.5l42 -802q2 -38 -20.5 -63t-60.5 -27z" />
    <glyph glyph-name="germandbls" unicode="&#xdf;" 
d="M287 -38q-53 4 -80 34t-24 72q4 44 38 62q21 12 72 18q25 4 44.5 23.5t21.5 48.5q5 48 -14 70q-13 14 -48 25q-40 14 -57 26q-36 26 -32 77q4 40 26 58q16 13 57 25q23 6 32 14q13 13 16 45q2 19 -11.5 35.5t-37.5 18.5q-35 3 -51 -21q-14 -20 -19 -70l-38 -441
q-4 -45 -33.5 -72.5t-72.5 -23.5t-67 36t-21 77l39 441q10 112 74 182q69 74 178 74q110 0 182 -69q75 -73 65 -183q-7 -81 -57 -129q85 -59 85 -186q0 -110 -77 -192q-81 -85 -190 -75z" />
    <glyph glyph-name="acute" unicode="&#xb4;" horiz-adv-x="245" 
d="M187 610l-119 -18q-32 -5 -51 0q-56 13 -56 88q0 62 57 76l10 2l127 21q31 5 49 1q28 -7 43.5 -32.5t15.5 -53.5q0 -33 -21 -56t-55 -28z" />
    <glyph glyph-name="dieresis" unicode="&#xa8;" horiz-adv-x="297" 
d="M226 584q-40 -2 -70 24.5t-32 67.5q-2 40 24.5 70t67.5 32q40 2 70 -25t32 -67t-25 -70t-67 -32zM6 572q-40 -2 -70 25t-32 67t25 70t67 32t70 -24.5t32 -67.5q2 -40 -24.5 -70t-67.5 -32z" />
    <glyph glyph-name="AE" unicode="&#xc6;" horiz-adv-x="845" 
d="M716 -53l-257 22q-43 4 -70 34.5t-23 74.5l2 25l-189 16q-51 -74 -57 -80q-39 -43 -86 -39q-38 3 -64 28q-29 28 -25 68q2 29 22 58l359 544q29 45 96 39l349 -30q45 -4 68 -34.5t20 -67.5q-4 -37 -30 -62q-30 -28 -74 -24l-151 13l-8 -95l138 -12q46 -4 71 -36
q22 -28 19 -66t-31 -62q-30 -28 -75 -24l-138 13l-9 -102l159 -14q45 -4 69 -36q22 -28 19 -66q-4 -37 -30 -62q-30 -27 -74 -23zM400 463q-39 -63 -108 -168l92 -8z" />
    <glyph glyph-name="Oslash" unicode="&#xd8;" horiz-adv-x="741" 
d="M616 749l-38 -81q92 -76 132 -192q25 -72 25 -145q0 -119 -63 -210q-66 -96 -183 -137q-65 -22 -127 -22q-51 0 -99 16q-31 -65 -33 -68q-25 -38 -60 -38q-27 0 -48.5 19.5t-21.5 46.5q0 23 17 57q12 25 25 49q-89 73 -130 192q-25 72 -25 145q0 119 64.5 212.5
t181.5 134.5q63 21 125 21q52 0 100 -15q30 63 35 69q25 38 62 38q47 0 61 -39q10 -31 0 -53zM294 550q-103 -36 -103 -156q0 -79 43 -150l141 313q-37 8 -81 -7zM487 470l-142 -315q37 -8 83 7q104 36 104 154q0 83 -45 154z" />
    <glyph glyph-name="yen" unicode="&#xa5;" horiz-adv-x="590" 
d="M511 643l-65 -155l32 7q8 2 17 2q30 0 50 -18t20 -47q0 -25 -17 -43.5t-40 -23.5l-114 -26l4 -18l114 26q8 2 17 2q30 0 50.5 -18.5t20.5 -46.5q0 -25 -17.5 -43.5t-40.5 -23.5l-114 -27l21 -93q3 -13 3 -26q0 -74 -78 -92q-15 -3 -28 -3q-74 0 -91 76l-22 93l-114 -26
q-9 -2 -18 -2q-29 0 -49.5 18.5t-20.5 47.5q0 24 18 44q16 17 40 23l114 26l-4 18l-114 -27q-9 -2 -18 -2q-29 0 -49.5 18.5t-20.5 47.5q0 25 17 43t41 24l31 7l-82 66q-67 58 -76 99q-3 11 -3 23q0 41 28.5 68.5t69.5 27.5t67 -23l159 -147l79 202q11 27 38 44t57 17
q33 0 59.5 -21.5t33.5 -54.5q8 -33 -5 -63z" />
    <glyph glyph-name="ordfeminine" unicode="&#xaa;" horiz-adv-x="388" 
d="M312 373q-37 -2 -57 20q-33 -25 -70 -27q-82 -4 -137 47t-60 134q-4 80 45 138.5t125 62.5q45 3 80 -18q18 23 54 25q69 4 73 -75l12 -235q4 -69 -65 -72zM178 621q-21 -1 -33 -19.5t-11 -46.5q3 -63 50 -61q44 2 41 65q-3 64 -47 62z" />
    <glyph glyph-name="ordmasculine" unicode="&#xba;" horiz-adv-x="360" 
d="M164 367q-84 7 -133 67.5t-42 139.5q6 77 66 129t143 45t132 -68.5t42 -139.5q-7 -79 -64 -129q-60 -52 -144 -44zM187 621q-21 2 -35.5 -15t-17.5 -45q-2 -27 9.5 -46t31.5 -21q20 -1 34.5 15.5t17.5 43.5q5 64 -40 68z" />
    <glyph glyph-name="ae" unicode="&#xe6;" horiz-adv-x="938" 
d="M310 486q-1 3 -1 7q0 36 50 53q17 6 32 6q20 0 36 -11q66 84 188 84q91 0 169 -53.5t108 -139.5q7 -20 7 -38q0 -54 -62 -75l-259 -89q26 -26 67 -26q24 0 49 9q34 11 73.5 55.5t60.5 51.5q12 4 25 4q34 0 60.5 -24.5t26.5 -58.5q0 -56 -68 -118q-61 -56 -134 -81
q-47 -17 -93 -17q-21 0 -41 4q-9 -23 -34 -37t-52 -14q-29 0 -50 20q-26 -58 -100 -84q-41 -14 -82 -14q-87 0 -159.5 58t-105.5 156q-20 57 -20 115q0 90 45 160.5t124 97.5q35 12 70 12q37 0 70 -13zM586 451q-57 -20 -59 -84l157 54q-28 35 -68 35q-15 0 -30 -5zM248 322
q-54 -19 -54 -88q0 -28 10 -57q31 -89 98 -89q13 0 25 5q52 18 52 86q0 27 -10 55q-13 41 -40 66.5t-58 25.5q-11 0 -23 -4z" />
    <glyph glyph-name="oslash" unicode="&#xf8;" horiz-adv-x="599" 
d="M572 443l-41 -38q35 -76 29 -160q-8 -124 -91 -205q-87 -85 -212 -76q-87 6 -151 56q-18 -16 -36 -33q-24 -19 -45 -17q-28 2 -45.5 23t-15.5 47q1 25 22 47q20 17 40 35q-36 74 -30 163q8 121 94.5 206.5t208.5 76.5q87 -6 153 -61q18 16 35 32q24 18 44 17
q28 -2 45.5 -23t15.5 -47q-2 -27 -20 -43zM287 387q-41 3 -67.5 -31t-30.5 -85l123 110q-11 5 -25 6zM367 257l-119 -107q10 -4 22 -5q40 -3 67 31q26 31 30 81z" />
    <glyph glyph-name="questiondown" unicode="&#xbf;" horiz-adv-x="510" 
d="M196 359q-42 0 -72.5 30t-30.5 73t30.5 73t72.5 30q43 0 73 -30.5t30 -72.5q0 -43 -30 -73t-73 -30zM344 -205q-36 -8 -71 -8q-87 0 -151 45q-69 49 -89 136q-7 30 -7 58q0 124 126 197l-4 16q-2 12 -2 23q0 33 20.5 58t55.5 33q13 3 26 3q72 0 89 -73l23 -98q2 -8 2 -17
q0 -37 -65 -71t-65 -67q0 -7 2 -15q9 -38 54 -38q7 0 14 1q32 8 63.5 66t70.5 67q11 2 21 2q31 0 54 -21.5t31 -55.5q4 -17 4 -34q0 -74 -70 -137q-60 -54 -132 -70z" />
    <glyph glyph-name="exclamdown" unicode="&#xa1;" horiz-adv-x="338" 
d="M129 459q0 42 30 72.5t73 30.5t73 -30.5t30 -72.5q0 -43 -30 -73t-73 -30q-42 0 -72.5 30t-30.5 73zM2 -118q0 12 3 24l87 375q16 71 90 71q41 0 71 -26t30 -67q0 -11 -2 -22l-87 -375q-8 -34 -33.5 -53t-57.5 -19q-41 0 -71 26t-30 66z" />
    <glyph glyph-name="florin" unicode="&#x192;" horiz-adv-x="534" 
d="M171 280q-41 5 -63 33q-20 25 -17 61q4 44 36 65q29 19 71 15l20 -1l36 128q24 72 60 108q46 46 120 46q19 0 36 -2q110 -16 102 -102q-7 -83 -110 -74q-15 1 -24 -32l-25 -89l5 -1q43 -4 67 -28.5t21 -66.5q-7 -79 -103 -79q-11 0 -25 1l-12 1l-87 -319
q-51 -186 -211 -172q-121 11 -113 100q6 78 88 78q10 0 23 -1q12 -1 18 15q3 13 6 25z" />
    <glyph glyph-name="guillemotleft" unicode="&#xab;" horiz-adv-x="524" 
d="M473 103q-15 -5 -30 -5q-28 0 -49 16q-43 30 -85 59q-79 60 -93 101q-4 11 -4 26q0 22 8 50l48 162q14 33 50 45q15 5 30 5q36 0 57.5 -24.5t21.5 -60.5q0 -32 -14 -83q-9 -31 -19 -63q33 -23 65 -46q56 -43 66 -71q5 -16 5 -31q0 -60 -57 -80zM280 36q-15 -5 -30 -5
q-28 0 -49 17q-43 29 -85 59q-79 60 -93 100q-4 12 -4 27q0 21 8 49l48 163q14 32 51 45q14 5 29 5q36 0 58 -24.5t22 -60.5q0 -32 -15 -83q-9 -32 -19 -64q33 -23 65 -46q56 -42 66 -71q5 -15 5 -31q0 -60 -57 -80z" />
    <glyph glyph-name="guillemotright" unicode="&#xbb;" horiz-adv-x="494" 
d="M454 190l-108 -131q-25 -25 -64 -22q-36 3 -57.5 28t-19.5 58q2 28 19 51l77 103q-21 34 -42 67q-34 60 -32 90q2 36 27.5 60t63.5 22q47 -3 68 -41q27 -44 55 -88q49 -86 46 -129q-2 -30 -33 -68zM250 204l-107 -131q-26 -24 -64 -22q-37 3 -58.5 28t-19.5 58
q2 28 19 51l77 103l-42 68q-34 59 -32 89q3 36 28.5 60.5t62.5 21.5q47 -3 68 -41l56 -88q49 -86 46 -128q-3 -30 -34 -69z" />
    <glyph glyph-name="ellipsis" unicode="&#x2026;" horiz-adv-x="900" 
d="M824 38q-42 0 -72.5 30.5t-30.5 72.5q0 43 30.5 73t72.5 30q43 0 73 -30.5t30 -72.5q0 -43 -30 -73t-73 -30zM500 -37q-43 0 -73 30.5t-30 72.5q0 43 30.5 73t72.5 30q43 0 73 -30.5t30 -72.5q0 -43 -30.5 -73t-72.5 -30zM176 -112q-43 0 -73 30.5t-30 72.5q0 43 30 73
t73 30q42 0 72.5 -30.5t30.5 -72.5q0 -43 -30.5 -73t-72.5 -30z" />
    <glyph glyph-name="OE" unicode="&#x152;" horiz-adv-x="1021" 
d="M426 695q-4 42 72 69l228 78q18 6 35 6q39 0 65.5 -28t26.5 -67q0 -66 -66 -89l-145 -49l32 -91l133 46q19 6 36 6q39 0 65.5 -28t26.5 -66q0 -67 -67 -90l-133 -46l33 -96l153 52q18 7 36 7q38 0 64.5 -28.5t26.5 -67.5q0 -66 -66 -88l-262 -91q-20 -7 -35 -7
q-23 0 -37 18q-33 -59 -152 -101q-62 -21 -123 -21q-119 0 -215 74.5t-139 198.5q-25 72 -25 145q0 119 64.5 212.5t181.5 134.5q54 18 108 18q41 0 78 -11zM301 510q-104 -36 -104 -156q0 -44 17 -91q23 -69 67 -109.5t100 -40.5q26 0 53 9q105 36 105 154q0 44 -17 93
q-24 68 -68.5 109t-100.5 41q-26 0 -52 -9z" />
    <glyph glyph-name="oe" unicode="&#x153;" horiz-adv-x="927" 
d="M828 167l-273 19q22 -56 100 -61q35 -3 88.5 22.5t76.5 24.5q34 -3 57 -31.5t21 -61.5q-4 -62 -98 -100q-85 -35 -172 -29q-116 8 -185 85q-78 -66 -186 -59q-124 9 -199 105q-71 92 -62 216q9 122 93 205q88 87 211 79q102 -7 179 -83q75 65 178 58q114 -8 193.5 -99.5
t71.5 -206.5q-6 -89 -94 -83zM648 386q-60 4 -87 -54l165 -12q-17 62 -78 66zM287 399q-41 3 -67.5 -30.5t-29.5 -84.5q-4 -51 17.5 -87t62.5 -39t67.5 30t29.5 83q4 52 -17.5 88.5t-62.5 39.5z" />
    <glyph glyph-name="endash" unicode="&#x2013;" horiz-adv-x="528" 
d="M454 250l-370 -86q-11 -2 -22 -2q-65 0 -80 66q-3 11 -3 22q0 65 67 80l370 86q11 2 22 2q65 0 80 -66q3 -11 3 -22q0 -65 -67 -80z" />
    <glyph glyph-name="emdash" unicode="&#x2014;" horiz-adv-x="1024" 
d="M968 95l-974 225q-67 15 -67 79q0 11 3 23q15 66 80 66q11 0 22 -3l974 -225q67 -15 67 -79q0 -11 -3 -23q-15 -66 -80 -66q-11 0 -22 3z" />
    <glyph glyph-name="quotedblleft" unicode="&#x201c;" horiz-adv-x="425" 
d="M443 618l-77 -155q-24 -48 -76 -51q-37 -2 -66.5 23.5t-31.5 62.5q-2 34 42 123l46 84q23 48 77 51q37 2 67 -23t32 -63q1 -23 -13 -52zM239 608l-77 -156q-23 -48 -76 -50q-37 -2 -66.5 23t-31.5 63q-1 33 43 122q22 42 45 85q23 48 77 51q37 2 67 -23.5t32 -62.5
q1 -24 -13 -52z" />
    <glyph glyph-name="quotedblright" unicode="&#x201d;" horiz-adv-x="435" 
d="M446 587l-97 -143q-31 -44 -83 -39q-37 3 -62.5 32t-22.5 66q3 33 59 115q28 39 57 78q30 45 83 40q37 -3 63 -32.5t23 -66.5q-2 -23 -20 -50zM243 605l-98 -143q-30 -44 -82 -40q-37 4 -62.5 33t-22.5 66q3 33 59 115l56 78q30 44 84 40q37 -4 63 -33t23 -66
q-2 -23 -20 -50z" />
    <glyph glyph-name="quoteleft" unicode="&#x2018;" horiz-adv-x="212" 
d="M227 668q-1 -14 -2 -24l-31 -170q-10 -53 -59 -70q-15 -5 -30 -5q-29 0 -53.5 16.5t-34.5 44.5q-4 12 -4 33q0 43 15 120l16 70q9 53 60 70q15 5 30 5q32 0 58.5 -19t32.5 -50q2 -9 2 -21z" />
    <glyph glyph-name="quoteright" unicode="&#x2019;" horiz-adv-x="244" 
d="M242 598l-95 -144q-29 -45 -82 -42q-37 3 -63 31.5t-23 66.5q2 33 56 116l56 78q29 45 83 42q37 -3 63.5 -31.5t23.5 -66.5q-1 -23 -19 -50z" />
    <glyph glyph-name="fraction" unicode="&#x2044;" horiz-adv-x="334" 
d="M343 611l-390 -599q-20 -24 -29 -30q-17 -11 -41 -9q-30 3 -54 28.5t-21 58.5q2 24 17 47l384 593q28 43 72 39q33 -3 56.5 -28.5t20.5 -59.5q-2 -21 -15 -40z" />
    <glyph glyph-name="currency" unicode="&#xa4;" horiz-adv-x="646" 
d="M655 192q-9 -31 -42 -43q-10 -3 -21 -3q-18 0 -43 12l-40 22q-35 -45 -94.5 -71t-118.5 -26q-27 0 -51 6q-12 -25 -23 -51q-17 -29 -41 -37q-11 -4 -23 -4q-50 0 -69 54q-6 19 5 40l2 5l27 54q-55 42 -81 117q-17 49 -17 94q0 27 7 50l-46 22q-30 16 -40 33q-5 16 -5 31
q0 51 46 68q10 3 20 3q19 0 44 -12q20 -10 41 -21q45 55 119 80q45 16 94 16q27 0 50 -5q11 25 23 50q17 29 41 37q11 4 23 4q50 0 69 -54q6 -19 -5 -40l-2 -5l-26 -53q52 -39 80 -120q16 -44 16 -88q0 -29 -7 -54l59 -28q22 -11 29 -30q9 -26 0 -53zM265 460
q-69 -24 -69 -96q0 -21 7 -41q26 -75 98 -75q17 0 34 6q69 24 69 96q0 20 -6 40q-27 76 -99 76q-17 0 -34 -6z" />
    <glyph glyph-name="guilsinglleft" unicode="&#x2039;" horiz-adv-x="308" 
d="M182 37q-47 3 -68 41q-28 44 -55 88q-49 86 -46 128q2 31 33 69l107 131q26 24 65 22q36 -3 57.5 -28t19.5 -58q-3 -33 -42 -86l-54 -66l42 -68q34 -61 32 -91q-2 -36 -27.5 -60.5t-63.5 -21.5z" />
    <glyph glyph-name="guilsinglright" unicode="&#x203a;" horiz-adv-x="296" 
d="M270 231l-65 -157q-23 -42 -76 -42q-28 0 -49.5 17.5t-28.5 44.5q-6 27 4 54l44 119q-30 27 -60 53q-51 48 -58 78q-2 10 -2 21q0 37 25 61.5t61 24.5q34 0 57 -22q49 -44 98 -87q63 -62 63 -107q0 -25 -13 -58z" />
    <glyph glyph-name="fi" unicode="&#xf001;" horiz-adv-x="537" 
d="M364 629q0 43 31.5 73t74.5 30t74 -31.5t31 -74.5t-31.5 -74.5t-74.5 -31.5q-44 0 -74.5 32.5t-30.5 76.5zM311 -60q-35 8 -55 34.5t-20 61.5q0 14 4 29l86 374q9 37 35 60t60 23q12 0 23 -3q35 -8 54.5 -34t19.5 -61q0 -15 -3 -29l-86 -374q-9 -38 -35 -60.5t-60 -22.5
q-12 0 -23 2zM252 377l-9 2l-70 -299q-8 -38 -34 -60.5t-61 -22.5q-11 0 -23 2q-34 8 -54 34.5t-20 61.5q0 14 3 29l70 299l-7 1q-69 16 -69 82q0 12 3 24q7 31 30.5 49.5t53.5 18.5q11 0 21 -2l7 -2l11 48q17 72 62 111t106 39q23 0 46 -6q34 -7 59 -27q34 -26 34 -64
q0 -10 -3 -22q-16 -69 -73 -69q-11 0 -22 3q-17 4 -23 -23l-8 -34l10 -2q76 -17 76 -81q0 -12 -3 -26q-17 -71 -70 -71q-15 0 -43 7z" />
    <glyph glyph-name="fl" unicode="&#xf002;" horiz-adv-x="547" 
d="M429 -21q-43 -2 -71.5 26.5t-30.5 73.5l-32 615q-3 45 22.5 76.5t68.5 33.5t71.5 -26.5t31.5 -73.5l32 -615q2 -45 -23.5 -76.5t-68.5 -33.5zM253 382h-10l16 -307q2 -45 -23 -76.5t-68 -33.5t-71.5 26.5t-31.5 73.5l-16 307l-7 -1q-39 -2 -64.5 21t-27.5 62
q-2 38 22 64.5t61 28.5h7l-2 49q-5 88 41 141t124 57q41 2 72 -13q43 -22 46 -71q4 -86 -73 -90q-17 -1 -16 -29l2 -34l10 1q95 5 99 -83q3 -57 -26 -78q-19 -12 -64 -15z" />
    <glyph glyph-name="daggerdbl" unicode="&#x2021;" horiz-adv-x="635" 
d="M523 -38l-138 12l-11 -130q-4 -43 -32 -66t-70 -19t-65.5 31.5t-20.5 70.5l12 129l-139 12q-37 4 -57 30t-17 65q4 39 28.5 61.5t61.5 19.5l138 -12l17 193l-139 12q-36 3 -56.5 29.5t-17.5 65.5q4 39 28.5 61t61.5 19l138 -12l11 128q4 43 32 66t70 19t65.5 -31.5
t20.5 -70.5l-11 -127l138 -12q37 -4 57 -30t17 -65t-28 -61.5t-61 -19.5l-139 12l-17 -193l139 -12q37 -3 57 -29.5t17 -65.5q-4 -39 -28.5 -61t-61.5 -19z" />
    <glyph glyph-name="periodcentered" unicode="&#xb7;" horiz-adv-x="252" 
d="M168 184q-17 -6 -34 -6q-32 0 -59.5 19t-37.5 50q-6 17 -6 34q0 32 19 59.5t50 37.5q17 6 33 6q33 0 60.5 -19t37.5 -50q6 -17 6 -35q0 -32 -19 -59t-50 -37z" />
    <glyph glyph-name="periodcentered" unicode="&#x2219;" horiz-adv-x="252" 
d="M168 184q-17 -6 -34 -6q-32 0 -59.5 19t-37.5 50q-6 17 -6 34q0 32 19 59.5t50 37.5q17 6 33 6q33 0 60.5 -19t37.5 -50q6 -17 6 -35q0 -32 -19 -59t-50 -37z" />
    <glyph glyph-name="quotesinglbase" unicode="&#x201a;" horiz-adv-x="244" 
d="M242 30l-95 -144q-29 -45 -82 -42q-37 3 -63 31.5t-23 66.5q2 33 56 116l56 78q29 45 83 42q37 -3 63.5 -31.5t23.5 -66.5q-1 -23 -19 -50z" />
    <glyph glyph-name="quotedblbase" unicode="&#x201e;" horiz-adv-x="429" 
d="M437 112q-2 -15 -5 -24l-48 -166q-15 -52 -66 -63q-10 -3 -21 -3q-31 0 -57 19.5t-33 50.5q-2 7 -2 17q0 39 26 124l26 78q15 52 67 64q10 2 21 2q31 0 57.5 -19t33.5 -50q3 -14 1 -30zM238 66q-2 -15 -4 -24l-49 -166q-15 -51 -66 -63q-10 -3 -20 -3q-32 0 -58 19.5
t-33 50.5q-2 7 -2 17q0 39 26 124l26 78q15 52 67 64q10 2 21 2q31 0 57.5 -19t33.5 -50q3 -14 1 -30z" />
    <glyph glyph-name="perthousand" unicode="&#x2030;" horiz-adv-x="947" 
d="M792 -106q-64 14 -101 64t-37 113q0 77 52.5 134t128.5 57q20 0 40 -5q64 -14 101 -64.5t37 -113.5q0 -76 -52.5 -133t-128.5 -57q-20 0 -40 5zM199 455q-64 14 -101 64t-37 113q0 76 52.5 133.5t128.5 57.5q20 0 40 -5q64 -14 101 -64.5t37 -113.5q0 -77 -52 -132
q-53 -58 -129 -58q-20 0 -40 5zM660 611l-470 -538q-35 -31 -57 -31q-32 0 -57 25t-25 57t26 61l463 533q27 32 56 32q9 0 20 -3q28 -6 47 -29t19 -51q0 -31 -22 -56zM449 -27q-64 15 -101 65t-37 112q0 77 52.5 134t128.5 57q20 0 41 -4q63 -15 100 -65.5t37 -113.5
q0 -76 -52.5 -133t-128.5 -57q-20 0 -40 5zM841 109q-26 6 -34 -28q-1 -6 -1 -12q0 -22 20 -27q26 -6 34 27q1 6 1 12q0 24 -20 28zM248 670q-26 6 -34 -28q-1 -6 -1 -12q0 -23 20 -27q26 -6 34 27q1 6 1 12q0 23 -20 28zM498 188q-26 6 -34 -28q-1 -6 -1 -11q0 -23 20 -28
q26 -6 34 27q1 7 1 12q0 24 -20 28z" />
    <glyph glyph-name="dotlessi" unicode="&#x131;" horiz-adv-x="244" 
d="M90 -30q-43 3 -67.5 34.5t-21.5 76.5l27 383q3 45 32 73t72 25t67.5 -34.5t21.5 -76.5l-27 -383q-3 -45 -32 -73t-72 -25z" />
    <glyph glyph-name="circumflex" unicode="&#x2c6;" horiz-adv-x="271" 
d="M224 594q-5 -1 -13 -1q-15 0 -83 13q-19 -15 -39 -30q-28 -19 -42 -23q-8 -2 -17 -2q-30 0 -55 20.5t-32 49.5q-2 11 -2 22q0 43 43 74l102 71l123 -19q81 -13 81 -87q0 -30 -18.5 -55.5t-47.5 -32.5z" />
    <glyph glyph-name="tilde" unicode="&#x2dc;" horiz-adv-x="283" 
d="M156 568q-21 5 -57 26t-48 24q-4 1 -21 -5q-20 -7 -35 -7q-10 0 -19 3q-25 5 -41 28t-16 49q0 43 34.5 72t78.5 29q15 0 31 -3q21 -5 90 -44q9 -5 13 -6q3 -1 27.5 5.5t40.5 6.5q31 0 50 -21.5t19 -53.5q0 -47 -36.5 -76.5t-83.5 -29.5q-14 0 -27 3z" />
    <glyph glyph-name="macron" unicode="&#xaf;" horiz-adv-x="274" 
d="M208 590l-185 -10q-39 -2 -66 19t-29 61t23 64t63 26l185 10q38 2 65.5 -19t29.5 -61t-22.5 -64t-63.5 -26z" />
    <glyph glyph-name="macron" unicode="&#x2c9;" horiz-adv-x="274" 
d="M208 590l-185 -10q-39 -2 -66 19t-29 61t23 64t63 26l185 10q38 2 65.5 -19t29.5 -61t-22.5 -64t-63.5 -26z" />
    <glyph glyph-name="breve" unicode="&#x2d8;" horiz-adv-x="273" 
d="M102 572q-61 6 -110 37q-64 41 -58 108q2 30 18 52q21 29 59 26q41 -3 63.5 -39.5t39.5 -37.5q13 -1 28 15q23 24 32 30q23 16 56 13q32 -3 50 -36q15 -27 12 -55q-5 -64 -76 -94q-55 -24 -114 -19z" />
    <glyph glyph-name="dotaccent" unicode="&#x2d9;" horiz-adv-x="194" 
d="M143 583q-16 -5 -32 -5q-31 0 -56 18t-36 47q-5 16 -5 32q0 31 18 56t47 36q16 5 32 5q31 0 56 -18t36 -47q5 -16 5 -32q0 -31 -18 -56t-47 -36z" />
    <glyph glyph-name="ring" unicode="&#x2da;" horiz-adv-x="219" 
d="M102 554q-51 4 -84.5 42.5t-30.5 90.5q4 51 42.5 84.5t90.5 30.5q51 -4 84.5 -42.5t30.5 -90.5q-4 -51 -42.5 -84.5t-90.5 -30.5zM112 698q-20 1 -21 -19t19 -21t21 19t-19 21z" />
    <glyph glyph-name="cedilla" unicode="&#xb8;" horiz-adv-x="255" 
d="M178 -17q74 -2 92 -78q3 -14 3 -28q0 -46 -37 -81q-30 -28 -72 -38q-19 -4 -40 -4q-36 0 -60 13q-30 17 -30 51q0 39 38 48q17 -1 50 1q7 1 6 5q-1 3 -11 0q-16 -1 -23 -1q-36 0 -44 35q-4 18 35 109l120 28z" />
    <glyph glyph-name="hungarumlaut" unicode="&#x2dd;" horiz-adv-x="372" 
d="M322 578l-119 -17q-31 -5 -50 -1q-57 13 -57 89q0 62 58 76l9 2l127 20q31 5 49 1q28 -6 45 -33q14 -24 14 -52q0 -34 -21 -57t-55 -28zM52 641l-119 -18q-32 -4 -51 0q-57 13 -57 89q0 62 58 75l10 3l126 20q31 5 49 1q28 -7 45 -34q14 -23 14 -52q0 -33 -21 -56
t-54 -28z" />
    <glyph glyph-name="ogonek" unicode="&#x2db;" horiz-adv-x="296" 
d="M110 -245q-50 -2 -85 25.5t-37 77.5q-3 52 41 103q35 41 81 63l177 9q-158 -92 -155 -146q1 -14 11 -14q6 0 18.5 4.5t20.5 4.5q45 3 48 -44q1 -30 -35 -55t-85 -28z" />
    <glyph glyph-name="caron" unicode="&#x2c7;" horiz-adv-x="270" 
d="M220 602l-119 -37l-110 57q-60 30 -54 89q2 34 30 59.5t63 22.5q16 -2 88 -41q77 26 93 25q35 -3 58 -33t20 -64q-5 -58 -69 -78z" />
    <glyph glyph-name="Lslash" unicode="&#x141;" horiz-adv-x="457" 
d="M32 178q-18 -16 -44 -18q-31 -2 -51.5 19t-22.5 53q-2 28 17 52q9 12 40 39l48 41l-18 263q-4 47 22.5 77t69.5 33q44 3 74 -23t33 -73l8 -112q28 25 55 50q35 27 67 29q25 2 47 -15q24 -20 27 -52q2 -39 -56 -88l-127 -108l13 -180l152 11q48 4 77 -26q26 -27 26 -67
q0 -36 -22 -62q-25 -29 -68 -32l-249 -18q-47 -3 -77 24.5t-33 75.5z" />
    <glyph glyph-name="lslash" unicode="&#x142;" horiz-adv-x="322" 
d="M257 551q15 2 30 -2q48 -13 48 -64q0 -10 -3 -20q-9 -35 -44 -55l-82 -47l-81 -304q-10 -36 -35.5 -57.5t-59.5 -21.5q-13 0 -26 3q-71 19 -71 94q0 16 5 33l35 131q-14 -1 -28 2q-49 13 -49 67q0 11 3 21q7 29 55 59q35 19 69 38l74 277q10 36 35.5 57.5t59.5 21.5
q13 0 26 -3q71 -19 71 -94q0 -16 -5 -33z" />
    <glyph glyph-name="Eth" unicode="&#xd0;" horiz-adv-x="673" 
d="M358 -20l-172 -27q-9 -2 -18 -2q-87 0 -101 84l-32 202q-8 -2 -17 -2q-35 0 -60 23.5t-25 58.5q0 29 19.5 52.5t55.5 28.5l-28 190q-2 9 -2 18q0 38 24 65.5t63 33.5l164 26q39 6 76 6q145 0 238.5 -89t118.5 -244q6 -38 6 -74q0 -138 -83.5 -232.5t-226.5 -117.5z
M256 545l-65 -11l16 -104l57 9q8 1 17 1q33 0 55.5 -19.5t26.5 -49.5q6 -32 -14 -60t-60 -34l-56 -9l18 -115l75 12q135 22 135 165q0 23 -4 48q-26 170 -164 170q-18 0 -37 -3z" />
    <glyph glyph-name="eth" unicode="&#xf0;" horiz-adv-x="571" 
d="M174 675l-3 2q-32 28 -26 62q11 72 86 72q13 0 29 -2q53 -8 122 -63q29 10 58 21q42 14 64 10q25 -4 39.5 -24.5t10.5 -46.5q-5 -29 -33 -44q-7 -4 -54 -20q86 -125 86 -278q0 -54 -11 -118q-19 -125 -96.5 -203.5t-187.5 -78.5q-23 0 -46 4q-109 18 -175 101
q-62 80 -62 188q0 27 5 54q15 96 89 166q79 73 179 73q47 0 88 -17q-23 32 -41 49l-68 -24q-50 -16 -72 -13q-22 4 -38 22.5t-11 47.5q4 26 24 41q12 8 44 19zM275 370q-48 8 -79 -33q-27 -36 -27 -85q0 -43 20 -72q23 -33 64 -33q42 0 70 40q25 37 25 85q0 87 -73 98z" />
    <glyph glyph-name="Scaron" unicode="&#x160;" horiz-adv-x="517" 
d="M135 -19q-78 21 -142 64q-85 55 -85 116q0 37 27 65.5t65 28.5q12 0 25 -3q28 -7 76 -40t76 -41q17 -5 31 -5q48 0 60 44q7 28 -59 68q-103 64 -129 86q-71 64 -71 145q0 27 8 57q24 88 94 137q66 46 154 46q41 0 81 -10q58 -16 114 -56q70 -50 70 -103q0 -36 -28.5 -65
t-64.5 -29q-12 0 -24 3q-23 6 -60.5 31.5t-60.5 31.5q-12 3 -23 3q-35 0 -42 -27q-6 -20 59 -59q92 -55 127 -89q69 -68 69 -155q0 -33 -9 -68q-24 -90 -96 -140q-68 -47 -157 -47q-43 0 -85 11zM455 725l-125 -4l-92 83q-35 32 -35 69q0 15 6 31q9 25 33 42t52 17
q13 0 27 -5t73 -62q82 6 97 0q25 -9 40 -33t15 -51q0 -16 -5 -29q-20 -56 -86 -58z" />
    <glyph glyph-name="scaron" unicode="&#x161;" horiz-adv-x="474" 
d="M328 -19q-51 -18 -114 -18q-120 0 -145 69q-4 11 -4 27q0 66 55 86q20 7 41 7q14 0 40.5 -4t39.5 -4q19 0 36 6q26 10 26 20q0 3 -1 6q-3 8 -46 8h-14h-15q-84 0 -133 17q-77 26 -103 97q-12 33 -12 66q0 63 41.5 114t111.5 77q46 17 100 17q112 0 137 -68q5 -15 5 -32
q0 -61 -54 -81q-17 -6 -66 -1.5t-69 -2.5q-23 -8 -18 -22q3 -9 51 -9h22q85 0 133 -16q79 -26 105 -98q11 -31 11 -63q0 -63 -43 -116.5t-118 -81.5zM294 614l-114 -51l-117 43q-62 22 -64 82q-1 34 23.5 62t59.5 30q15 0 92 -30q22 11 44 21q31 14 45 15q35 1 61.5 -25.5
t27.5 -60.5q3 -59 -58 -86z" />
    <glyph glyph-name="Yacute" unicode="&#xdd;" horiz-adv-x="466" 
d="M438 694l-63 -312l105 -237q10 -21 10 -44q0 -59 -61 -86q-24 -11 -46 -11q-59 0 -86 60l-105 236l-274 162q-50 30 -50 88q0 62 58 88q21 10 43 10q27 0 49 -14l185 -113l40 214q6 34 35 56.5t64 22.5q62 0 88 -58q14 -31 8 -62zM295 792l-115 -36q-31 -10 -50 -9
q-35 3 -56 39q-17 30 -15 65q3 41 46 59l9 4l122 40q30 10 49 8q33 -2 55 -34q19 -28 17 -58q-4 -60 -62 -78z" />
    <glyph glyph-name="yacute" unicode="&#xfd;" horiz-adv-x="501" 
d="M461 449l-198 -616q-24 -74 -86 -79q-44 -3 -73.5 20.5t-32.5 59.5q-2 33 26 120q15 41 30 83l-182 375q-10 22 -12 46q-2 38 27 66q27 25 60 27q71 5 100 -60l91 -203l67 214q21 69 90 74q33 2 63 -19q33 -24 36 -62q2 -24 -6 -46zM368 594l-120 1h-27q-8 1 -23 7
q-44 18 -44 77q0 24 8 43q16 39 62 43h10l129 1q31 0 48 -7q46 -19 46 -79q0 -17 -5 -31q-23 -56 -84 -55z" />
    <glyph glyph-name="Thorn" unicode="&#xde;" horiz-adv-x="573" 
d="M323 112l-86 -6l3 -39q3 -47 -23 -76.5t-70 -32.5q-43 -3 -73 22.5t-34 72.5l-39 567q-4 47 22.5 77t69.5 33q44 3 74 -23t33 -73v-3l80 5q121 9 206 -58.5t93 -184.5q8 -118 -66.5 -195.5t-189.5 -85.5zM290 455l-77 -6l11 -161l77 5q36 3 55.5 26.5t16.5 59.5
q-2 36 -25 57t-58 19z" />
    <glyph glyph-name="thorn" unicode="&#xfe;" horiz-adv-x="583" 
d="M281 551q24 10 57 10q28 0 54 -7q91 -24 141 -103q47 -72 47 -165q0 -44 -11 -86q-26 -96 -96 -164q-77 -77 -172 -77q-94 0 -162 64l-33 -124q-10 -37 -35.5 -58.5t-59.5 -21.5q-13 0 -26 3q-71 19 -71 95q0 16 4 32l215 800q9 36 35 58t59 22q13 0 27 -4q71 -19 71 -94
q0 -16 -5 -32zM327 383q-10 3 -20 3q-33 0 -59.5 -28.5t-38.5 -72.5q-6 -23 -6 -44q0 -39 20 -65q22 -29 59 -29q45 0 76 49q28 43 28 92q0 79 -59 95z" />
    <glyph glyph-name="Zcaron" unicode="&#x17d;" horiz-adv-x="557" 
d="M420 -45l-389 55q-44 6 -70 32t-26 64q0 46 36 83l348 366l-213 30q-35 5 -58.5 28t-23.5 58q0 44 32 72t76 22l362 -51q51 -7 75.5 -39.5t19.5 -71.5q-6 -41 -38 -74l-345 -360l239 -34q37 -5 61 -28.5t24 -59.5q0 -44 -33.5 -71t-76.5 -21zM484 726l-124 -4l-93 83
q-35 32 -35 69q0 15 6 31q9 25 33.5 42t51.5 17q14 0 27.5 -5t73.5 -62q81 6 96 0q26 -9 41 -33t15 -51q0 -16 -5 -29q-20 -56 -87 -58z" />
    <glyph glyph-name="zcaron" unicode="&#x17e;" horiz-adv-x="518" 
d="M388 -40l-334 35q-33 4 -54 23q-25 23 -21 60q3 28 23 51l226 256l-118 13q-37 4 -61 30.5t-20 66.5q5 40 33.5 61t65.5 17l325 -34q31 -4 49.5 -25t15.5 -53q-3 -29 -26 -55l-227 -256l141 -15q37 -4 60 -29q24 -28 20 -68t-32.5 -61t-65.5 -17zM323 614l-114 -51
l-117 43q-63 23 -65 82q-1 34 24 62t59 30q16 0 92 -30q22 11 44 21q32 14 46 15q35 1 61.5 -25.5t27.5 -60.5q2 -59 -58 -86z" />
    <glyph glyph-name="onehalf" unicode="&#xbd;" horiz-adv-x="852" 
d="M767 177l43 7q35 6 61 -22q23 -26 23 -62q0 -56 -55 -65l-224 -36q-7 -1 -14 -1q-59 0 -67 54q-4 23 14 50q41 61 83 121q62 96 58 122q-2 13 -23 10t-27 -28q-10 -41 -12 -45q-18 -32 -61 -32q-33 0 -52.5 25t-19.5 58q0 50 39 96q45 54 115 65q17 2 34 2q67 0 111 -38
q47 -41 47 -107t-73 -174zM572 693q1 -16 -5 -36l-234 -675q-14 -28 -21 -36q-14 -15 -38 -19q-29 -4 -58.5 15t-34.5 51q-4 25 5 51l229 668q19 56 73 56q33 0 57 -21.5t27 -53.5zM169 218q-62 0 -72 58l-41 259l-8 -2q-7 -1 -14 -1q-32 0 -51 26q-17 23 -17 55q0 61 58 70
l92 15q6 1 13 1q55 0 64 -57l55 -342q5 -35 -19.5 -58.5t-59.5 -23.5z" />
    <glyph glyph-name="onequarter" unicode="&#xbc;" horiz-adv-x="803" 
d="M767 147q44 -15 44 -63q0 -37 -23 -60t-59 -17l-10 2l29 20l-7 -44q-9 -58 -68 -58q-34 0 -57 16q-27 19 -27 51q0 7 2 15l3 19l-137 22q-32 5 -45 31q-11 20 -7 44q3 22 19 41l181 218q29 34 73 34q47 0 80.5 -26t33.5 -73q0 -10 -1 -20zM653 600l-431 -570
q-35 -35 -60 -35q-35 0 -61 29t-20 64q4 24 20 47l425 564q26 35 59 35q38 0 64.5 -28t20.5 -66q-3 -21 -17 -40zM89 383l41 259l-9 1q-57 9 -57 69q0 37 22 62t59 19l92 -14q30 -5 45.5 -27t10.5 -50l-54 -343q-4 -26 -24 -41.5t-47 -15.5q-36 0 -59 22q-26 23 -20 59z
M622 208l15 91l20 -29q1 -3 2 -7q-4 -8 -15 -25q-9 -13 -22 -30zM622 208q-12 -17 -24 -32l19 -3z" />
    <glyph glyph-name="onesuperior" unicode="&#xb9;" horiz-adv-x="242" 
d="M156 263q-32 -2 -54 14q-25 18 -27 50l-18 261h-9q-69 -5 -74 72q-2 31 15 54t48 25l93 7q31 2 51 -16t22 -46l24 -347q2 -29 -18 -50t-53 -24z" />
    <glyph glyph-name="threequarters" unicode="&#xbe;" horiz-adv-x="816" 
d="M755 110q38 -18 38 -60q0 -11 -3 -22q-15 -56 -67 -56q-9 0 -19 2l-10 3l30 18l-11 -44q-14 -51 -64 -51q-13 0 -27 4q-59 16 -59 65q0 10 3 21l5 20l-133 36q-47 12 -47 60q0 33 25 58l204 198q27 27 63 27q46 0 81 -27t35 -72q0 -15 -4 -32zM751 556l-489 -522
q-35 -29 -56 -29q-9 0 -19 3q-25 7 -43 30t-18 50q0 33 27 62l481 518q28 29 55 29q11 0 23 -3q27 -8 45 -30.5t18 -49.5q0 -10 -3 -20q-5 -21 -21 -38zM163 328q-51 14 -94 53q-50 46 -50 98q0 14 4 28q12 45 70 45q10 0 19 -2q30 -8 45 -43.5t42 -42.5q9 -3 16 -3
q23 0 26 13q5 17 -17 29l-44 24q-25 17 -25 44q0 10 3 22q13 47 67 47h7q5 -1 7 -1q27 0 30 14q4 14 -25 14q-12 0 -37 -14t-44 -14q-10 0 -20 3q-49 13 -49 65q0 50 52 77q42 22 96 22q27 0 47 -5q52 -14 89 -51q40 -40 40 -90q0 -70 -61 -108q34 -41 34 -90q0 -17 -5 -33
q-29 -109 -158 -109q-33 0 -65 8zM618 185l24 89l18 -30q3 1 3 -1q0 -8 -45 -58zM618 185q-14 -15 -27 -29l18 -5z" />
    <glyph glyph-name="threesuperior" unicode="&#xb3;" horiz-adv-x="370" 
d="M119 269q-51 14 -93 53q-50 46 -50 98q0 14 3 28q13 45 70 45q10 0 20 -2q29 -8 44.5 -43.5t41.5 -42.5q9 -3 16 -3q23 0 26 13q5 17 -17 29.5t-44 23.5q-25 17 -25 44q0 10 3 22q13 47 67 47h7.5h7.5q26 0 29 13q4 14 -25 14q-11 0 -36.5 -13.5t-44.5 -13.5q-10 0 -20 2
q-49 13 -49 65q0 50 52 77q42 22 96 22q27 0 47 -5q52 -14 89 -50q40 -41 40 -91q0 -70 -61 -107q34 -42 34 -91q0 -17 -4 -33q-30 -109 -159 -109q-33 0 -65 8z" />
    <glyph glyph-name="twosuperior" unicode="&#xb2;" horiz-adv-x="391" 
d="M265 427l45 5q69 9 78 -67q9 -75 -59 -83l-223 -28q-27 -3 -49 9q-26 14 -30 46q-3 23 16 49q43 59 87 118q65 94 62 120q-1 14 -22 12q-21 -3 -28 -28q-11 -40 -14 -44q-15 -26 -49 -30q-35 -4 -56 16.5t-25 55.5q-8 68 55 122q59 49 129 49q68 0 115 -40t47 -107
q0 -68 -79 -175z" />
    <glyph glyph-name="brokenbar" unicode="&#xa6;" horiz-adv-x="236" 
d="M87 298q-32 0 -54 19.5t-27 52.5l-36 227q-1 8 -1 16q0 37 25 60t63 23q32 0 54 -19.5t27 -52.5l36 -227q1 -8 1 -16q0 -37 -25.5 -60t-62.5 -23zM165 -196q-32 0 -54 19.5t-27 52.5l-36 227q-1 8 -1 16q0 37 25.5 60t62.5 23q32 0 54 -19.5t27 -52.5l36 -227q1 -8 1 -16
q0 -37 -25 -60t-63 -23z" />
    <glyph glyph-name="minus" unicode="&#xad;" horiz-adv-x="589" 
d="M489 137l-405 64q-33 5 -52.5 27.5t-19.5 53.5q0 38 23 63t60 25q8 0 16 -1l405 -64q33 -5 52.5 -27.5t19.5 -53.5q0 -38 -23 -63t-60 -25q-8 0 -16 1z" />
    <glyph glyph-name="minus" unicode="&#x2212;" horiz-adv-x="589" 
d="M489 137l-405 64q-33 5 -52.5 27.5t-19.5 53.5q0 38 23 63t60 25q8 0 16 -1l405 -64q33 -5 52.5 -27.5t19.5 -53.5q0 -38 -23 -63t-60 -25q-8 0 -16 1z" />
    <glyph glyph-name="multiply" unicode="&#xd7;" horiz-adv-x="562" 
d="M479 15q-35 -3 -103 56q-34 33 -68 65q-29 -37 -58 -73q-59 -68 -94 -71q-34 -2 -63 21.5t-31 57.5q-2 32 22 60l99 114q-37 29 -73 58q-68 59 -71 94q-2 34 21.5 63t57.5 31q32 2 60 -22l114 -99l98 114q25 28 57 30q34 2 61.5 -23t29.5 -59q3 -35 -56 -103
q-33 -34 -65 -68l114 -98q28 -25 30 -57q2 -31 -21.5 -60t-60.5 -31z" />
    <glyph glyph-name="Adieresis" unicode="&#xc4;" horiz-adv-x="670" 
d="M610 13q-48 0 -78 43q-6 8 -44 86l-239 -33q-15 -90 -24 -108q-24 -54 -89 -54q-36 0 -64 22t-33 59q-2 18 3 42l123 567q11 51 47.5 84.5t87.5 33.5q81 0 124 -82l269 -511q14 -25 16 -44q7 -45 -23.5 -75t-75.5 -30zM312 505q-6 -66 -30 -202l120 17zM331 766
q-41 0 -69 28.5t-28 68.5q0 41 28.5 69t68.5 28q41 0 69 -28.5t28 -68.5q0 -41 -28.5 -69t-68.5 -28zM119 705q-40 0 -68 29t-28 69t28.5 68t68.5 28t68.5 -28.5t28.5 -68.5t-29 -68.5t-69 -28.5z" />
    <glyph glyph-name="Aring" unicode="&#xc5;" horiz-adv-x="556" 
d="M404 -91q-72 24 -72 118q0 10 1 29.5t1 29.5l-230 74q-49 -68 -52 -71q-34 -36 -73 -36q-16 0 -34 6q-31 9 -50.5 34.5t-19.5 57.5q0 33 26 66l359 455q48 60 116 60q19 0 39 -6q90 -29 93 -135l19 -578q0 -28 -6 -46q-20 -63 -87 -63q-15 0 -30 5zM335 489
q-36 -57 -116 -168l115 -38zM364 706q-39 12 -63 45t-24 73q0 19 5 37q12 39 45 63t73 24q19 0 37 -5q40 -12 64 -45t24 -73q0 -19 -6 -37q-12 -40 -45 -64t-73 -24q-19 0 -37 6zM406 843q-19 6 -25 -13q-5 -19 14 -25t25 13q6 20 -14 25z" />
    <glyph glyph-name="Ccedilla" unicode="&#xc7;" horiz-adv-x="595" 
d="M287 -28q-128 23 -210.5 125t-89.5 243q-9 167 88.5 285t259.5 126q81 5 153 -22q90 -35 94 -102q2 -37 -21 -65.5t-61 -30.5q-20 -1 -71 15q-41 14 -84 12q-76 -4 -116.5 -63t-35.5 -148q4 -85 50.5 -138t122.5 -49q40 2 87.5 25.5t69.5 25.5q43 2 71 -32q23 -27 24 -57
q4 -67 -74 -110q-61 -34 -143 -43l-21 -31l-22 39q3 0 10.5 2t10.5 2q43 2 73 -24t33 -72q3 -58 -43 -94q-38 -29 -87 -32q-40 -2 -73 12q-44 18 -46 57q-1 21 12 36.5t34 16.5q9 1 25.5 -3t24.5 -4q7 0 7 3t-11 3q-29 2 -40 8q-18 9 -20 37q-1 15 19 47z" />
    <glyph glyph-name="Eacute" unicode="&#xc9;" horiz-adv-x="498" 
d="M262 -47l-248 71q-34 10 -54.5 36t-20.5 59q0 15 4 30l152 528q24 85 97 85q16 0 33 -5l238 -69q71 -20 71 -89q0 -39 -27 -67.5t-66 -28.5q-14 0 -30 5l-145 41l-26 -92l133 -38q73 -21 73 -91q0 -39 -27 -67t-67 -28q-15 0 -30 5l-134 38l-28 -98l154 -44
q70 -20 70 -89q0 -39 -26.5 -67.5t-66.5 -28.5q-14 0 -29 4zM336 765l-120 -7q-31 -2 -50 4q-50 16 -50 82q0 19 6 35q12 40 59 46l9 2l128 9q32 2 49 -3q52 -17 52 -82q0 -36 -23.5 -60t-59.5 -26z" />
    <glyph glyph-name="Ntilde" unicode="&#xd1;" horiz-adv-x="782" 
d="M513 389q-45 70 -150 284q-13 24 -13 49q0 59 58 87q23 11 46 11q59 0 89 -60l249 -510q12 -26 12 -50q0 -59 -57 -87q-18 -8 -43 -8q-29 0 -50 10l-422 213q45 -68 149 -279q13 -25 13 -50q0 -58 -58 -86q-23 -11 -47 -11q-59 0 -88 60l-249 510q-12 25 -12 50
q0 59 57 87q17 8 43 8q29 0 50 -11zM293 729q-21 -2 -62 6.5t-53 6.5q-3 0 -24.5 -15t-43.5 -18q-29 -3 -54.5 18.5t-28.5 50.5q-5 51 28 87q31 33 80 38q22 2 99 -12q11 -2 15 -1q2 0 29 17.5t45 19.5q35 3 58 -22q19 -21 22 -51q5 -48 -31 -86q-34 -34 -79 -39z" />
    <glyph glyph-name="Odieresis" unicode="&#xd6;" horiz-adv-x="725" 
d="M266 -27q-131 31 -209 133q-74 99 -74 231q0 51 12 102q32 139 130.5 224.5t229.5 85.5q44 0 88 -10q130 -30 208 -134q74 -101 74 -233q0 -49 -11 -99q-32 -138 -130.5 -224t-229.5 -86q-44 0 -88 10zM400 556q-18 4 -36 4q-62 0 -106.5 -46t-61.5 -121q-9 -36 -9 -69
q0 -140 121 -168q20 -4 38 -4q62 0 106 46t61 122q8 34 8 67q0 64 -31 109.5t-90 59.5zM496 737q-40 1 -68 29.5t-27 69.5q1 40 29.5 68t69.5 27q40 -1 68 -29.5t27 -69.5q-1 -40 -29.5 -68t-69.5 -27zM276 741q-40 1 -68 29.5t-27 69.5q1 40 29.5 68t69.5 27
q40 -1 68 -29.5t27 -69.5q-1 -40 -29.5 -68t-69.5 -27z" />
    <glyph glyph-name="Udieresis" unicode="&#xdc;" horiz-adv-x="716" 
d="M392 -37q-136 -10 -237 74q-104 86 -113 222l-25 356q-4 47 22.5 77t69.5 33q44 3 74 -23t33 -73l25 -348q4 -61 42 -98t96 -33q55 4 88.5 47.5t29.5 101.5l-24 348q-4 47 22.5 77t69.5 33q44 3 74 -23t33 -73l25 -356q9 -135 -80.5 -234t-224.5 -108zM362 757
q-41 0 -69 28.5t-28 68.5q0 41 28.5 69t68.5 28t68.5 -28.5t28.5 -68.5q0 -41 -28.5 -69t-68.5 -28zM150 696q-40 0 -68.5 29t-28.5 69t29 68t69 28t68 -28.5t28 -68.5t-28.5 -68.5t-68.5 -28.5z" />
    <glyph glyph-name="aacute" unicode="&#xe1;" horiz-adv-x="565" 
d="M439 -24q-53 0 -78 42q-55 -48 -128 -48q-114 0 -188.5 86.5t-74.5 215.5q0 127 76 215.5t187 88.5q76 0 129 -45q28 39 77 39q59 0 81 -41q13 -26 13 -78v-356q0 -52 -13 -77q-22 -42 -81 -42zM253 394q-41 0 -65 -35t-24 -87q0 -50 24 -85t65 -35q39 0 62.5 35t23.5 85
q0 52 -23.5 87t-62.5 35zM359 570l-120 -18q-31 -4 -50 0q-57 13 -57 89q0 62 58 75l9 3l127 20q31 5 49 1q28 -7 45 -34q14 -23 14 -51q0 -34 -21 -57t-54 -28z" />
    <glyph glyph-name="agrave" unicode="&#xe0;" horiz-adv-x="588" 
d="M545 31q-16 -4 -31 -4q-31 0 -56 23q-40 -61 -110 -81q-34 -10 -69 -10q-91 0 -164 62t-103 166q-14 48 -14 98q0 95 49.5 168.5t133.5 97.5q30 9 59 9q42 0 77 -17q17 46 64 59q18 6 34 6q62 0 89 -94l98 -342q10 -37 10 -59q0 -62 -67 -82zM251 382q-60 -17 -60 -93
q0 -24 8 -49q11 -41 37.5 -67.5t59.5 -26.5q10 0 21 3q57 16 57 91q0 24 -7 48q-12 43 -38.5 70t-58.5 27q-10 0 -19 -3zM347 576l-10 -1q-9 0 -40 10l-114 38q-58 19 -61 79q-2 30 18 58q22 32 56 33q18 1 48 -9l130 -46q43 -19 46 -60q1 -34 -17 -65q-21 -35 -56 -37z" />
    <glyph glyph-name="acircumflex" unicode="&#xe2;" horiz-adv-x="579" 
d="M494 0q-9 -1 -17 -1q-41 0 -66 31q-59 -67 -156 -67q-101 0 -175.5 73.5t-90.5 191.5q-4 25 -4 51q0 114 68 199q72 90 184 90q58 0 103 -29q27 51 91 51q75 0 90 -106l50 -353q3 -24 3 -40q0 -80 -80 -91zM252 388q-35 -5 -54 -34.5t-19 -72.5q0 -52 26 -92
q30 -48 80 -41q33 5 52 34.5t19 71.5q0 51 -26 92q-30 49 -78 42zM419 584q-16 -2 -94 20l-42 -26q-30 -17 -44 -19q-39 -5 -69 23.5t-30 67.5q0 48 51 77l107 62l121 -30q65 -16 73 -75q5 -33 -16.5 -64t-56.5 -36z" />
    <glyph glyph-name="adieresis" unicode="&#xe4;" horiz-adv-x="668" 
d="M627 113q-25 -16 -50 -16q-19 0 -38 10q-21 -70 -82.5 -108t-131.5 -38q-72 0 -139 40.5t-113 113.5q-53 85 -53 179q0 147 115 219q51 31 107 31q13 0 26 -2q3 49 45 75q28 17 54 17q45 0 88 -69l189 -301q30 -48 30 -80q0 -42 -47 -71zM248 369q-36 -23 -36 -70
q0 -40 25 -81q42 -66 99 -66q21 0 40 12q35 21 35 67q0 40 -25 80q-43 69 -101 69q-20 0 -37 -11zM326 607q-18 -7 -36 -7q-66 0 -90 60q-7 18 -7 37q0 65 60 90q18 7 37 7q65 0 90 -61q7 -18 7 -37q0 -65 -61 -89zM122 524q-18 -7 -36 -7q-66 0 -90 61q-7 18 -7 36
q0 66 60 90q18 7 37 7q65 0 90 -60q7 -18 7 -37q0 -65 -61 -90z" />
    <glyph glyph-name="atilde" unicode="&#xe3;" horiz-adv-x="567" 
d="M501 4q-10 -2 -19 -2q-40 0 -65 30q-47 -55 -119 -67q-20 -3 -40 -3q-100 0 -174 72.5t-93 188.5q-4 28 -4 56q0 115 67 198q72 90 184 90q55 0 100 -27q26 52 92 52q73 0 89 -105l56 -351q4 -26 4 -43q0 -77 -78 -89zM252 387q-35 -5 -53.5 -34t-18.5 -71q0 -49 24 -88
q27 -47 73 -47q40 0 62 34q19 28 19 71q0 52 -26 94q-32 49 -80 41zM345 565q-20 6 -54.5 30t-46.5 27q-4 1 -19 -3q-19 -5 -32 -5q-12 0 -24 4q-23 7 -37.5 29t-14.5 47q0 10 3 20q24 79 107 79q21 0 41.5 -6.5t86.5 -49.5q8 -6 12 -7q3 -1 25.5 3.5t36.5 4.5
q32 0 51.5 -21t19.5 -53q0 -46 -35.5 -75t-83.5 -29q-19 0 -36 5z" />
    <glyph glyph-name="aring" unicode="&#xe5;" horiz-adv-x="571" 
d="M526 19q-14 -3 -26 -3q-34 0 -59 26q-43 -59 -114 -75q-29 -7 -58 -7q-94 0 -167.5 66.5t-99.5 175.5q-9 40 -9 80q0 101 54 177.5t143 97.5q25 6 49 6q47 0 87 -21q18 44 66 56q16 3 30 3q66 0 89 -98l80 -347q7 -32 7 -53q0 -68 -72 -84zM187 286q0 -20 4 -41
q10 -43 36 -71t60 -28q39 0 60 31q20 27 20 68q0 19 -5 40q-10 44 -36 72.5t-59 28.5q-39 0 -59.5 -29.5t-20.5 -70.5zM220 544q-52 0 -88 36.5t-36 88.5q0 51 36.5 87t88.5 36q51 0 87 -36.5t36 -87.5q0 -52 -36.5 -88t-87.5 -36zM217 688q-19 -3 -16 -23q3 -19 23 -16
q19 3 16 23q-3 19 -23 16z" />
    <glyph glyph-name="ccedilla" unicode="&#xe7;" horiz-adv-x="536" 
d="M157 -12q-68 38 -105 105.5t-37 146.5q0 39 9 77q24 102 102.5 171t179.5 69q31 0 62 -8q57 -13 109 -49q63 -44 63 -93q0 -8 -2 -16q-6 -27 -27 -49q-25 -26 -56 -26q-25 0 -61 23q-42 27 -60 31q-11 3 -21 3q-36 0 -62.5 -27.5t-37.5 -72.5q-4 -17 -4 -35q0 -43 24 -74
t65 -31q13 0 38.5 4.5t37.5 4.5q35 0 59.5 -26.5t24.5 -61.5q0 -10 -2 -19q-10 -43 -61 -65q-41 -17 -98 -17q-15 0 -30 1l-31 -26l-10 44q3 -1 10.5 -1.5t11.5 -0.5q35 -8 56.5 -33.5t21.5 -61.5q0 -13 -4 -26q-20 -89 -124 -89q-18 0 -35 3q-34 8 -61 28q-36 25 -36 57
q0 22 14 38t36 16q13 0 29 -9q22 -11 28 -13t7 2q1 2 -9 5q-47 17 -47 45q0 6 1 15q4 15 32 41z" />
    <glyph glyph-name="eacute" unicode="&#xe9;" horiz-adv-x="590" 
d="M483 272l-254 -103q25 -23 61 -23q26 0 54 12q34 13 71.5 59.5t58.5 54.5q13 6 28 6q35 0 61.5 -24.5t26.5 -59.5q0 -55 -64 -118q-58 -58 -128 -86q-59 -24 -118 -24q-88 0 -160 51.5t-108 141.5q-24 59 -24 122q0 87 43 157q46 75 129 109q49 20 101 20q89 0 167 -54
q73 -51 103 -126q9 -22 9 -42q0 -50 -57 -73zM224 389q-57 -22 -54 -86l154 62q-28 32 -65 32q-17 0 -35 -8zM332 613l-117 -24q-32 -6 -51 -3q-30 6 -47 35q-14 25 -14 57q0 57 53 73l10 2l125 27q31 7 49 4q30 -5 47 -31.5t17 -55.5q0 -69 -72 -84z" />
    <glyph glyph-name="egrave" unicode="&#xe8;" horiz-adv-x="549" 
d="M466 243l-266 -66q27 -33 75 -33q18 0 38 5q34 9 85 56q45 42 77 42q34 0 60.5 -25.5t26.5 -58.5q0 -57 -75 -116q-67 -53 -144 -72q-40 -10 -79 -10q-102 0 -178 63t-102 169q-10 39 -10 79q0 99 54 177q58 83 157 107q33 9 66 9q99 0 181 -68q76 -63 98 -150
q4 -17 4 -31q0 -60 -68 -77zM226 395q-59 -14 -66 -78l162 40q-27 41 -72 41q-12 0 -24 -3zM356 566l-10 1q-10 1 -38 15l-108 54q-55 27 -50 87q3 29 28 55.5t59 23.5q18 -1 46 -16l123 -63q39 -25 36 -66q-3 -34 -25 -62q-26 -32 -61 -29z" />
    <glyph glyph-name="ecircumflex" unicode="&#xea;" horiz-adv-x="566" 
d="M477 261l-259 -90q26 -26 67 -26q23 0 48 9q34 12 74 56t61 52q12 4 24 4q35 0 61.5 -25t26.5 -59q0 -55 -68 -117q-61 -57 -134 -82q-52 -18 -104 -18q-93 0 -166.5 56t-106.5 152q-18 51 -18 106q0 92 47 165q51 78 139 108q44 15 89 15q92 0 171 -59q75 -55 102 -135
q7 -20 7 -38q0 -53 -61 -74zM225 392q-58 -20 -59 -84l157 54q-27 35 -67 35q-15 0 -31 -5zM306 615q-13 -8 -94 -20q-14 -20 -28 -41q-20 -27 -32 -35q-19 -12 -43 -12q-51 0 -77 42q-14 22 -14 45q0 29 21 59l73 101l123 21q12 2 24 2q47 0 73 -41q13 -20 13 -46
q0 -51 -39 -75z" />
    <glyph glyph-name="edieresis" unicode="&#xeb;" horiz-adv-x="566" 
d="M469 247l-265 -71q27 -31 73 -31q20 0 41 6q34 9 84 57q45 44 77 44q34 0 60.5 -25.5t26.5 -59.5q0 -56 -73 -115q-66 -54 -142 -75q-43 -11 -85 -11q-100 0 -175.5 61.5t-102.5 165.5q-11 41 -11 84q0 98 52 175q57 82 153 108q35 9 71 9q98 0 179 -66q76 -62 99 -147
q4 -17 4 -32q0 -59 -66 -77zM226 396q-58 -16 -64 -80l161 43q-27 40 -71 40q-13 0 -26 -3zM398 576q-40 1 -68 30t-27 69t30 68t69 27t68 -29.5t27 -68.5q-1 -41 -29.5 -68.5t-69.5 -27.5zM179 580q-41 1 -68.5 29.5t-27.5 69.5q1 40 30 68t69 27t68 -29.5t27 -69.5
q0 -40 -29 -68t-69 -27z" />
    <glyph glyph-name="iacute" unicode="&#xed;" horiz-adv-x="269" 
d="M167 -26q-36 0 -62.5 25t-32.5 65l-60 379q-2 11 -2 21q0 43 27.5 71.5t69.5 28.5q37 0 63.5 -25t32.5 -65l60 -379q2 -11 2 -21q0 -43 -27.5 -71.5t-70.5 -28.5zM134 621l-112 -44q-30 -12 -49 -12q-36 0 -58 35q-20 29 -20 63q0 42 42 63l9 4l119 48q29 12 47 12
q34 0 58 -30q21 -27 21 -57q0 -60 -57 -82z" />
    <glyph glyph-name="igrave" unicode="&#xec;" horiz-adv-x="300" 
d="M-2 -15q-68 21 -68 93q0 18 6 36l112 367q23 77 94 77q15 0 29 -5q68 -21 68 -93q0 -17 -6 -36l-112 -367q-23 -77 -94 -77q-14 0 -29 5zM222 552l-10 3q-9 2 -35 20l-100 68q-39 27 -39 70q0 11 2 23q6 25 29.5 47t52.5 22q25 0 59 -24l112 -80q28 -24 28 -57
q0 -32 -26.5 -62.5t-58.5 -30.5q-7 0 -14 1z" />
    <glyph glyph-name="icircumflex" unicode="&#xee;" horiz-adv-x="256" 
d="M112 -31q-43 1 -69.5 31t-25.5 76l6 384q1 45 28.5 74.5t70.5 28.5t69.5 -31.5t25.5 -75.5l-6 -384q-1 -45 -28.5 -74.5t-70.5 -28.5zM213 600q-7 -2 -20 -2q-12 0 -77 8q-18 -16 -37 -31q-27 -21 -41 -25q-10 -3 -21 -3q-29 0 -53.5 18.5t-32.5 45.5q-4 14 -4 27
q0 40 40 71l98 77l124 -13q66 -7 82 -64q3 -11 3 -23q0 -28 -17 -53t-44 -33z" />
    <glyph glyph-name="idieresis" unicode="&#xef;" horiz-adv-x="321" 
d="M-26 72q0 10 2 20l60 379q6 40 32.5 65t63.5 25q42 0 69.5 -28.5t27.5 -71.5q0 -10 -2 -20l-60 -379q-6 -40 -32.5 -65t-62.5 -25q-43 0 -70.5 28.5t-27.5 71.5zM244 573q-40 1 -67.5 30.5t-26.5 69.5q2 41 31 68t70 26q40 -1 67.5 -30.5t25.5 -69.5q-1 -41 -30.5 -68
t-69.5 -26zM24 581q-40 1 -67.5 30.5t-26.5 69.5q2 40 31 67.5t70 26.5q40 -2 67.5 -31t25.5 -70q-1 -40 -30.5 -67.5t-69.5 -25.5z" />
    <glyph glyph-name="ntilde" unicode="&#xf1;" horiz-adv-x="588" 
d="M503 -3q-43 -5 -73 22t-34 72l-27 249q-7 74 -76 67q-67 -7 -59 -81l26 -249q5 -45 -18.5 -77.5t-66.5 -37.5q-43 -4 -73 22.5t-34 71.5l-41 382q-4 45 19.5 77.5t66.5 37.5q48 5 77 -25q53 54 155 54q86 0 145.5 -52t69.5 -144l29 -275q4 -45 -19.5 -77.5t-66.5 -36.5z
M253 575q-21 -2 -62 6t-53 7q-3 0 -24.5 -15.5t-43.5 -17.5q-30 -3 -55 18.5t-28 50.5q-5 51 28 86q30 33 80 39q22 2 99 -12q10 -2 15 -2q1 1 28.5 18t45.5 19q35 4 58 -21q19 -21 22 -52q5 -48 -32 -85q-33 -34 -78 -39z" />
    <glyph glyph-name="oacute" unicode="&#xf3;" horiz-adv-x="554" 
d="M265 -37q-125 2 -204 94q-75 88 -73 213q2 122 83.5 211.5t204.5 87.5t203 -97q77 -90 75 -212q-3 -124 -81 -210q-83 -89 -208 -87zM273 387q-41 1 -65.5 -34t-25.5 -86t22.5 -86t64.5 -36q40 0 65 34t26 85t-22.5 87t-64.5 36zM370 604l-119 -10q-32 -2 -51 4
q-50 15 -50 83q0 18 4 33q12 40 58 48l10 1l128 12q31 3 49 -3q53 -16 53 -83q0 -35 -23 -58.5t-59 -26.5z" />
    <glyph glyph-name="ograve" unicode="&#xf2;" horiz-adv-x="586" 
d="M387 -22q-40 -12 -79 -12q-97 0 -173 64q-75 61 -103 160q-13 44 -13 90q0 96 52 172q55 81 149 108q38 11 76 11q97 0 176 -65q76 -63 104 -160q13 -46 13 -93q0 -96 -51 -170q-55 -78 -151 -105zM270 385q-59 -17 -59 -93q0 -23 7 -49q12 -41 38.5 -67.5t58.5 -26.5
q11 0 22 4q60 17 60 92q0 23 -7 48q-13 42 -39 68.5t-59 26.5q-11 0 -22 -3zM303 584l-10 -2q-9 -3 -41 2l-119 18q-33 5 -54 28t-21 56q0 28 15.5 53.5t43.5 32.5q18 4 49 -1l136 -23q57 -13 57 -76q0 -75 -56 -88z" />
    <glyph glyph-name="ocircumflex" unicode="&#xf4;" horiz-adv-x="545" 
d="M201 -30q-108 19 -171 102q-61 79 -61 186q0 124 81 216q84 97 208 97q24 0 48 -4q106 -18 170 -104q61 -82 61 -188q0 -123 -79 -214q-83 -95 -206 -95q-25 0 -51 4zM260 389q-45 0 -73 -47q-24 -41 -24 -90q0 -42 20 -71q23 -33 63 -33q46 0 74 47q24 40 24 90
q0 43 -20 71q-23 33 -64 33zM438 563q-16 0 -91 33q-75 -33 -91 -33q-35 0 -60.5 27.5t-25.5 61.5q0 59 61 84l116 47l115 -47q62 -25 62 -84q0 -34 -26 -61.5t-60 -27.5z" />
    <glyph glyph-name="odieresis" unicode="&#xf6;" horiz-adv-x="565" 
d="M294 -37q-125 -6 -210 80q-82 83 -89 207q-6 122 68 215q77 97 199 104q123 6 209 -83q83 -84 90 -206q6 -125 -66 -215q-76 -95 -201 -102zM272 387q-41 -2 -63.5 -38.5t-19.5 -88.5q3 -50 29 -83.5t66 -31.5q41 2 63.5 38t19.5 87t-28.5 85t-66.5 32zM393 593
q-41 -2 -70.5 24.5t-31.5 66.5q-2 41 24.5 70.5t67.5 31.5q40 2 69.5 -24.5t31.5 -66.5q3 -41 -24 -70.5t-67 -31.5zM173 581q-40 -2 -70 25t-32 67t25 70t67 32t70 -25t32 -67t-25 -70t-67 -32z" />
    <glyph glyph-name="otilde" unicode="&#xf5;" horiz-adv-x="557" 
d="M258 -36q-125 4 -203 97q-74 90 -69 214q4 122 85 208q85 91 208 86q123 -4 201 -100q76 -92 71 -213q-4 -125 -84 -209q-84 -88 -209 -83zM273 387q-41 2 -66.5 -32.5t-26.5 -85.5q-2 -51 21 -86.5t63 -37.5q41 -1 66.5 33t26.5 84q2 52 -20.5 88t-63.5 37zM285 594
q-34 24 -45 28q-5 2 -20 -2q-18 -5 -30 -5q-13 0 -26 4q-23 8 -37 29.5t-14 46.5q0 11 3 21q26 77 107 77q22 0 43 -7t86 -51q8 -6 12 -7q3 -1 23 2q24 4 37 4q32 0 51.5 -20t19.5 -53q0 -45 -35 -74t-82 -29q-21 0 -40 6t-53 30z" />
    <glyph glyph-name="uacute" unicode="&#xfa;" horiz-adv-x="604" 
d="M425 -8q-65 -27 -124 -27q-147 0 -207 147l-97 241q-9 22 -9 45q0 64 60 88q18 8 37 8q64 0 92 -69l96 -238q18 -43 61 -43q28 0 49.5 19t21.5 47q0 13 -6 28l-96 238q-9 23 -9 45q0 65 60 89q18 7 37 7q64 0 92 -68l97 -241q20 -49 20 -96q0 -150 -175 -220zM272 623
l-107 -56q-21 -11 -23 -12q-8 -3 -24 -5q-36 -3 -62 28q-23 27 -26 62q-5 41 35 66l8 5l113 61q28 15 46 17q34 3 61 -24q24 -25 27 -55q6 -59 -48 -87z" />
    <glyph glyph-name="ugrave" unicode="&#xf9;" horiz-adv-x="555" 
d="M265 -37q-122 2 -191 66.5t-67 173.5l4 260q1 45 28.5 74.5t70.5 28.5t69.5 -31.5t25.5 -75.5l-4 -257q-1 -31 18.5 -49.5t48.5 -19.5q28 0 48 17.5t21 49.5l4 257q1 45 28.5 74.5t70.5 28.5t69.5 -31t25.5 -76l-4 -260q-2 -108 -73 -170t-193 -60zM361 567l-9 1
q-10 1 -39 15l-109 51q-55 27 -51 86q2 30 26 55q25 29 59 27q19 -2 47 -16l124 -61q40 -24 37 -65q-2 -34 -24 -62q-25 -33 -61 -31z" />
    <glyph glyph-name="ucircumflex" unicode="&#xfb;" horiz-adv-x="596" 
d="M386 -22q-51 -15 -98 -15q-81 0 -138 43.5t-80 124.5l-72 250q-5 17 -5 34q0 74 69 94q14 4 28 4q72 0 95 -78l70 -247q15 -50 63 -50q29 0 50 18.5t21 46.5q0 11 -3 22l-71 247q-5 17 -5 34q0 74 70 94q14 4 27 4q72 0 95 -78l71 -250q11 -39 11 -74q0 -79 -51 -138
t-147 -86zM387 632q-5 -1 -13 -1q-15 0 -83 12q-19 -14 -39 -29q-28 -20 -42 -23q-9 -2 -17 -2q-30 0 -55 20.5t-32 48.5q-3 12 -3 22q0 43 44 74l102 72l123 -20q81 -13 81 -86q0 -30 -18.5 -55.5t-47.5 -32.5z" />
    <glyph glyph-name="udieresis" unicode="&#xfc;" horiz-adv-x="559" 
d="M202 -30q-105 19 -163 79.5t-58 148.5q0 24 4 49l45 256q7 40 33.5 64t62.5 24q42 0 69.5 -28t27.5 -71q0 -11 -2 -22l-44 -254q-2 -7 -2 -14q0 -29 20.5 -47.5t50.5 -18.5q55 0 65 57l44 253q7 39 33.5 63.5t62.5 24.5q42 0 69.5 -28t27.5 -71q0 -11 -2 -23l-45 -256
q-16 -91 -77 -141.5t-155 -50.5q-32 0 -67 6zM358 648q0 40 28.5 68.5t68.5 28.5t69 -28t29 -69q0 -40 -28.5 -68.5t-68.5 -28.5t-69 28t-29 69zM142 686q0 40 28 68.5t69 28.5q40 0 68.5 -28t28.5 -68q0 -41 -28 -69.5t-69 -28.5q-40 0 -68.5 28.5t-28.5 68.5z" />
    <glyph glyph-name="degree" unicode="&#xb0;" horiz-adv-x="367" 
d="M184 378q-77 6 -126.5 65t-42.5 136q6 77 65 126.5t136 42.5q77 -6 126.5 -65t42.5 -136q-6 -77 -65 -126.5t-136 -42.5zM205 621q-23 2 -42 -14t-21 -39t14 -42t39 -21t42 14t21 39t-14 42t-39 21z" />
    <glyph glyph-name="registered" unicode="&#xae;" horiz-adv-x="793" 
d="M528 -16q-62 -21 -128 -21q-124 0 -227 72.5t-145 192.5q-21 62 -21 128q0 124 72.5 227t192.5 145q62 21 128 21q124 0 226 -71q104 -74 146 -194q21 -62 21 -128q0 -124 -71 -226q-74 -104 -194 -146zM318 595q-78 -27 -124.5 -93t-46.5 -146q0 -42 14 -82
q27 -78 93 -124.5t146 -46.5q42 0 82 14q78 27 124.5 93t46.5 146q0 42 -14 82q-27 78 -93 124.5t-146 46.5q-42 0 -82 -14zM396 266l24 -70q6 -17 6 -31q0 -44 -48 -61q-16 -6 -30 -6q-42 0 -60 52l-101 292q-5 15 -5 27q0 43 51 60l106 37q48 16 86 16q93 0 125 -94
q10 -30 10 -56q0 -59 -48 -93l48 -36q41 -34 49 -56q4 -11 4 -21q0 -41 -53 -59q-13 -5 -25 -5q-27 0 -67 38zM385 452l-47 -16l12 -37l48 16q23 8 23 17q0 3 -3 11q-5 14 -14 14q-6 0 -19 -5z" />
    <glyph glyph-name="copyright" unicode="&#xa9;" horiz-adv-x="793" 
d="M373 -36q-163 11 -269.5 134t-95.5 285q11 163 134 269.5t285 95.5q163 -11 269.5 -134t95.5 -285q-11 -163 -134 -269.5t-285 -95.5zM418 608q-105 8 -184 -60.5t-86 -173.5q-8 -105 60.5 -184t173.5 -86q105 -8 184 60.5t86 173.5q8 105 -60.5 184t-173.5 86zM387 125
q-101 7 -159 79q-55 68 -48 167q6 99 72 160.5t167 54.5q81 -5 138 -58q53 -49 50 -99q-3 -36 -18 -53.5t-51 -21.5q-33 3 -49 19q-12 12 -24 45q-15 26 -56 29q-65 4 -72 -87q-6 -90 60 -95q41 -3 58 21q17 31 31 41q18 14 51 11q36 -9 48 -28t9 -55q-3 -50 -63 -91
q-64 -44 -144 -39z" />
    <glyph glyph-name="trademark" unicode="&#x2122;" horiz-adv-x="990" 
d="M615 454q9 -34 17 -67q4 -16 4 -30q0 -57 -62 -71q-13 -3 -25 -3q-55 0 -71 68l-67 288q-2 12 -2 22q0 67 90 88q22 5 38 5q51 0 89 -56l74 -108l19 130q7 50 34 74q19 18 58 27q21 5 40 5q72 0 87 -65l66 -289q4 -15 4 -29q0 -57 -62 -71q-13 -3 -24 -3q-56 0 -72 68
l-15 67q-3 -40 -8 -81q-7 -80 -67 -94q-12 -3 -23 -3q-42 0 -79 58zM349 564l-53 -12l53 -231q3 -11 3 -22q0 -64 -66 -80q-12 -2 -23 -2q-64 0 -79 66l-54 231l-52 -12q-10 -2 -19 -2q-53 0 -65 54q-2 10 -2 19q0 53 54 65l271 63q10 2 19 2q53 0 65 -55q2 -9 2 -19
q0 -52 -54 -65z" />
    <glyph glyph-name="plusminus" unicode="&#xb1;" horiz-adv-x="605" 
d="M505 249h-120v-39q0 -37 -23.5 -61t-61.5 -24t-61.5 24t-23.5 61v39h-120q-38 0 -61.5 24t-23.5 61t23.5 61t61.5 24h120v39q0 37 23.5 61t61.5 24t61.5 -24t23.5 -61v-39h120q38 0 61.5 -24t23.5 -61t-23.5 -61t-61.5 -24zM505 -25h-410q-38 0 -61.5 24t-23.5 61
t23.5 61t61.5 24h410q38 0 61.5 -24t23.5 -61t-23.5 -61t-61.5 -24z" />
    <glyph glyph-name="mu" unicode="&#xb5;" horiz-adv-x="604" 
d="M166 10q-3 -42 -21 -125q-7 -38 -33.5 -60.5t-61.5 -22.5q-12 0 -23 2q-35 8 -55 34.5t-20 61.5q0 14 4 29l134 580q8 38 34 60.5t61 22.5q11 0 23 -2q35 -8 54.5 -34.5t19.5 -61.5q0 -14 -3 -28l-58 -251q-2 -9 -2 -18q0 -29 21 -47t50 -18q51 0 63 53l58 250
q9 38 35 60.5t60 22.5q12 0 23 -2q35 -8 55 -34.5t20 -61.5q0 -14 -4 -29l-86 -374q-9 -37 -35 -60t-60 -23q-30 0 -56 16t-37 44q-26 -28 -71 -28q-48 0 -89 44z" />
    <glyph glyph-name="mu" unicode="&#x3bc;" horiz-adv-x="604" 
d="M166 10q-3 -42 -21 -125q-7 -38 -33.5 -60.5t-61.5 -22.5q-12 0 -23 2q-35 8 -55 34.5t-20 61.5q0 14 4 29l134 580q8 38 34 60.5t61 22.5q11 0 23 -2q35 -8 54.5 -34.5t19.5 -61.5q0 -14 -3 -28l-58 -251q-2 -9 -2 -18q0 -29 21 -47t50 -18q51 0 63 53l58 250
q9 38 35 60.5t60 22.5q12 0 23 -2q35 -8 55 -34.5t20 -61.5q0 -14 -4 -29l-86 -374q-9 -37 -35 -60t-60 -23q-30 0 -56 16t-37 44q-26 -28 -71 -28q-48 0 -89 44z" />
    <glyph glyph-name="logicalnot" unicode="&#xac;" horiz-adv-x="614" 
d="M515 64q-38 -2 -62.5 20.5t-26.5 59.5l-8 142l-324 -17q-38 -2 -63 20.5t-27 60.5q-2 37 20.5 62t60.5 27l409 21q38 2 63 -20.5t27 -59.5l12 -227q2 -37 -20.5 -62t-60.5 -27z" />
    <glyph glyph-name="Agrave" unicode="&#xc0;" horiz-adv-x="556" 
d="M404 -91q-71 24 -71 118v29q1 20 1 30l-230 74q-49 -68 -52 -71q-33 -36 -72 -36q-17 0 -35 6q-30 9 -49.5 34.5t-19.5 57.5q0 33 25 65l360 456q47 60 115 60q20 0 39 -6q90 -29 94 -135l18 -578q1 -28 -5 -46q-20 -63 -87 -63q-16 0 -31 5zM335 489q-35 -57 -116 -168
l115 -38zM446 706l-10 2q-9 2 -36 21l-99 68q-39 27 -39 70q0 11 2 23q6 25 29.5 46.5t52.5 21.5q24 0 58 -24l113 -80q28 -23 28 -56q0 -32 -26.5 -62.5t-58.5 -30.5q-7 0 -14 1z" />
    <glyph glyph-name="Atilde" unicode="&#xc3;" horiz-adv-x="617" 
d="M550 -38q-59 2 -85 51q-7 13 -31 99l-242 9q-30 -85 -37 -96q-30 -48 -88 -46q-40 1 -68.5 29.5t-26.5 68.5q0 19 10 42l219 536q18 42 51 68q37 29 83 27q95 -3 127 -104l177 -550q9 -27 8 -46q-1 -40 -30 -64.5t-67 -23.5zM324 500q-19 -64 -66 -193l121 -5zM238 778
q-4 0 -23.5 -7.5t-36.5 -7.5q-34 0 -57.5 28.5t-17.5 61.5q8 45 41 70q30 23 72 23q30 0 61 -13q1 -1 56 -28q10 -5 14 -5q2 -1 32.5 8.5t49.5 6.5q58 -11 58 -76q0 -47 -37 -77t-85 -30q-30 0 -68 20q-43 23 -59 26z" />
    <glyph glyph-name="Otilde" unicode="&#xd5;" horiz-adv-x="723" 
d="M257 -25q-129 32 -204 133q-72 98 -72 228q0 55 13 110q34 136 132.5 219.5t227.5 83.5q46 0 93 -11q128 -32 204 -135q72 -100 72 -230q0 -53 -13 -106q-34 -136 -132 -220t-227 -84q-46 0 -94 12zM402 555q-20 5 -40 5q-60 0 -104.5 -45t-63.5 -119q-9 -38 -9 -74
q0 -135 118 -165q21 -5 40 -5q61 0 105 45t62 120q10 37 10 71q0 63 -30 108t-88 59zM375 756q-34 24 -45 28q-5 1 -20 -2q-18 -5 -30 -5q-13 0 -26 4q-22 7 -36.5 29t-14.5 47q0 11 4 21q25 77 106 77q22 0 43 -7t86 -51q8 -6 12 -7q3 -1 23 2q24 4 38 4q31 0 51 -20
t20 -53q0 -46 -35.5 -75t-82.5 -29q-21 0 -40 6.5t-53 30.5z" />
    <glyph glyph-name="divide" unicode="&#xf7;" horiz-adv-x="581" 
d="M253 352q-42 0 -72.5 30t-30.5 73q0 42 30.5 72.5t72.5 30.5q43 0 73 -30.5t30 -72.5q0 -43 -30 -73t-73 -30zM519 216l-400 -92q-11 -3 -22 -3q-64 0 -80 67q-2 11 -2 22q0 64 66 80l400 92q11 3 22 3q64 0 80 -67q2 -11 2 -22q0 -64 -66 -80zM347 -52q-43 0 -73 30.5
t-30 72.5q0 43 30 73t73 30q42 0 72.5 -30t30.5 -73q0 -42 -30.5 -72.5t-72.5 -30.5z" />
    <glyph glyph-name="ydieresis" unicode="&#xff;" horiz-adv-x="501" 
d="M475 418l-241 -600q-29 -73 -91 -73q-44 0 -72 25.5t-28 61.5q0 33 34 118l36 80l-155 388q-9 22 -9 46q0 38 32 64q28 23 61 23q71 0 95 -67l77 -209l82 209q26 67 95 67q33 0 61 -23q32 -26 32 -64q0 -24 -9 -46zM344 631q0 40 28 68.5t69 28.5q40 0 68.5 -28t28.5 -69
q0 -40 -28 -68.5t-69 -28.5q-40 0 -68.5 28t-28.5 69zM127 669q0 40 28.5 68.5t68.5 28.5t68.5 -28t28.5 -69q0 -40 -28 -68.5t-68 -28.5t-69 28t-29 69z" />
    <glyph glyph-name="Ydieresis" unicode="&#x178;" horiz-adv-x="490" 
d="M426 707l-47 -315l118 -231q12 -23 12 -48q0 -56 -57 -85q-25 -13 -50 -13q-55 0 -83 55l-118 231l-282 148q-55 28 -55 90q0 59 53 86q24 12 49 12q23 0 43 -11l192 -104l28 216q5 35 34.5 60t65.5 25q59 0 86 -55q15 -29 11 -61zM374 754q-40 -2 -70 24.5t-32 67.5
q-2 40 25 69.5t67 32.5q40 2 70 -25t32 -67t-24.5 -70t-67.5 -32zM155 742q-41 -2 -70.5 25t-31.5 67q-3 40 24 70t67 32q41 2 70.5 -24.5t31.5 -67.5q2 -40 -24.5 -70t-66.5 -32z" />
    <glyph glyph-name="Acircumflex" unicode="&#xc2;" horiz-adv-x="617" 
d="M550 -38q-59 2 -85 51q-7 13 -31 99l-242 9q-30 -85 -37 -96q-30 -48 -88 -46q-40 1 -68.5 29.5t-26.5 68.5q0 19 10 42l219 536q18 42 51 68q37 29 83 27q95 -3 127 -104l177 -550q9 -27 8 -46q-1 -40 -30 -64.5t-67 -23.5zM324 500q-19 -64 -66 -193l121 -5zM412 763
q-7 -2 -20 -2q-12 0 -76 9l-38 -32q-27 -21 -41 -25q-10 -3 -21 -3q-29 0 -53.5 19t-32.5 46q-4 13 -4 26q0 40 40 72l98 77l124 -14q66 -7 82 -64q3 -10 3 -22q0 -29 -16.5 -54t-44.5 -33z" />
    <glyph glyph-name="Ecircumflex" unicode="&#xca;" horiz-adv-x="498" 
d="M261 -47l-248 72q-33 9 -53.5 35t-20.5 59q0 15 4 30l152 528q24 85 97 85q15 0 32 -5l239 -69q70 -20 70 -89q0 -39 -26.5 -67.5t-65.5 -28.5q-15 0 -30 5l-145 41l-27 -92l134 -38q72 -21 72 -91q0 -39 -27 -67t-66 -28q-15 0 -31 5l-133 38l-29 -98l154 -44
q71 -20 71 -89q0 -39 -27 -67.5t-66 -28.5q-14 0 -30 4zM372 746q-16 -2 -95 20l-42 -26q-29 -17 -44 -19q-38 -5 -68 23.5t-30 67.5q0 48 50 77l108 62l121 -30q64 -16 72 -75q5 -33 -16.5 -64t-55.5 -36z" />
    <glyph glyph-name="Aacute" unicode="&#xc1;" horiz-adv-x="695" 
d="M673 53q-16 -4 -30 -4q-42 0 -74 38q-5 6 -49 78l-235 -58q-6 -90 -10 -103q-15 -54 -71 -68q-12 -3 -25 -3q-33 0 -59.5 19t-34.5 52q-4 18 -2 43l64 576q5 45 30 79q28 38 72 49q17 4 33 4q72 0 118 -69l322 -480q15 -24 20 -42q3 -11 3 -23q0 -31 -20.5 -55.5
t-51.5 -32.5zM307 507q0 -67 -10 -204l118 30zM279 787l-107 -55q-21 -12 -23 -12q-8 -3 -24 -5q-36 -4 -62 28q-22 27 -26 61q-4 42 35 67l8 5l114 60q27 15 45 17q34 4 61 -24q24 -24 27 -54q6 -60 -48 -88z" />
    <glyph glyph-name="Edieresis" unicode="&#xcb;" horiz-adv-x="496" 
d="M271 -46l-250 67q-34 9 -55 34.5t-21 59.5q0 14 4 29l142 531q23 86 97 86q15 0 31 -5l240 -64q72 -19 72 -89q0 -40 -26.5 -68t-66.5 -28q-13 0 -28 4l-145 39l-25 -93l134 -36q74 -20 74 -91q0 -39 -27 -67t-67 -28q-14 0 -29 4l-134 36l-26 -98l154 -42q72 -19 72 -89
q0 -39 -26.5 -67.5t-65.5 -28.5q-14 0 -28 4zM368 738q-41 1 -68.5 29.5t-27.5 69.5q1 40 30 68t69 27t68 -29.5t27 -69.5q-1 -40 -29.5 -68t-68.5 -27zM148 742q-41 1 -68.5 29.5t-27.5 69.5q1 40 30 67.5t69 27.5q40 -1 68 -30t27 -69q0 -40 -29 -68t-69 -27z" />
    <glyph glyph-name="Egrave" unicode="&#xc8;" horiz-adv-x="503" 
d="M416 -17l-258 -9q-43 -1 -73.5 26t-31.5 71l-20 549q-1 48 23 79q26 35 76 37l248 9q46 1 72 -26t28 -65q1 -37 -23 -65q-26 -31 -70 -32l-151 -6l3 -96l139 5q46 2 73 -25t28 -65q2 -38 -23 -65q-26 -31 -71 -33l-139 -4l3 -102l160 5q46 2 73 -27q25 -25 27 -63
q1 -38 -23 -65q-26 -31 -70 -33zM238 741l-9 -2q-10 -2 -41 2l-119 18q-34 5 -55 28t-21 56q0 29 14 52q17 27 45 34q18 4 49 -1l136 -23q58 -13 58 -75q0 -76 -57 -89z" />
    <glyph glyph-name="Iacute" unicode="&#xcd;" horiz-adv-x="287" 
d="M-48 0q-63 25 -63 89q0 22 9 44l213 527q27 66 91 66q20 0 40 -8q63 -26 63 -89q0 -22 -9 -44l-212 -527q-27 -66 -91 -66q-20 0 -41 8zM232 765l-119 -17q-32 -5 -50 -1q-57 14 -57 89q0 62 58 76l9 2l127 21q31 5 49 0q28 -6 43.5 -31.5t15.5 -53.5q0 -33 -21 -56.5
t-55 -28.5z" />
    <glyph glyph-name="Icircumflex" unicode="&#xce;" horiz-adv-x="260" 
d="M85 -29q-43 5 -68.5 35.5t-20.5 77.5l60 565q5 47 36 71.5t74 20.5q43 -5 68.5 -35.5t20.5 -77.5l-60 -565q-5 -47 -36 -72t-74 -20zM218 762q-8 -3 -20 -3q-13 0 -77 9q-18 -16 -37 -31q-27 -22 -41 -26q-10 -3 -21 -3q-29 0 -54 19t-32 46q-4 14 -4 27q0 40 40 71
l98 77l124 -13q66 -7 82 -64q3 -11 3 -23q0 -29 -17 -54t-44 -32z" />
    <glyph glyph-name="Idieresis" unicode="&#xcf;" horiz-adv-x="336" 
d="M18 -19q-76 19 -76 94q0 15 4 30l137 551q20 79 95 79q13 0 27 -3q76 -19 76 -94q0 -15 -4 -30l-137 -551q-20 -80 -95 -80q-13 0 -27 4zM260 735q-41 1 -68 30.5t-26 69.5q2 40 31 67.5t70 26.5q40 -2 67 -31t26 -70q-1 -40 -30.5 -67.5t-69.5 -25.5zM40 742
q-40 2 -67.5 31t-26.5 70q2 40 31 67.5t70 25.5q40 -1 67.5 -30.5t25.5 -69.5q-1 -40 -30.5 -67.5t-69.5 -26.5z" />
    <glyph glyph-name="Igrave" unicode="&#xcc;" horiz-adv-x="286" 
d="M203 -21q-36 0 -62.5 22.5t-33.5 63.5l-99 559q-2 12 -2 23q0 43 29.5 70.5t73.5 27.5q36 0 62.5 -22.5t33.5 -63.5l99 -559q2 -12 2 -23q0 -43 -29.5 -70.5t-73.5 -27.5zM99 743l-9 -3q-9 -3 -42 -2l-120 5q-37 2 -61 26t-24 60q0 30 15.5 54t43.5 30q15 3 41 2l138 -8
q46 -6 60 -46q5 -17 5 -37q0 -64 -47 -81z" />
    <glyph glyph-name="Oacute" unicode="&#xd3;" horiz-adv-x="723" 
d="M266 -27q-132 31 -209 133q-74 99 -74 231q0 51 12 102q32 139 130.5 224.5t229.5 85.5q44 0 88 -10q130 -30 208 -134q74 -101 74 -233q0 -49 -11 -99q-32 -138 -130.5 -224t-229.5 -86q-44 0 -88 10zM400 556q-18 4 -37 4q-61 0 -105.5 -46t-62.5 -121q-8 -36 -8 -69
q0 -140 121 -168q20 -4 38 -4q62 0 106 46t61 122q8 34 8 67q0 64 -31 109.5t-90 59.5zM459 766l-120 -10q-32 -2 -50 3q-51 16 -51 84q0 18 5 33q12 40 58 47l10 2l128 11q31 3 48 -2q54 -16 54 -83q0 -35 -23 -59t-59 -26z" />
    <glyph glyph-name="Ocircumflex" unicode="&#xd4;" horiz-adv-x="758" 
d="M411 -33q-173 -13 -287 109q-109 116 -109 290q0 156 94 265t248 120q171 12 286 -110q110 -118 110 -290q0 -155 -92 -263q-96 -111 -250 -121zM370 563q-76 -5 -117 -68q-38 -59 -32 -148q7 -90 52 -142q48 -56 125 -51q77 6 117 68q38 58 32 148q-7 89 -54 143.5
t-123 49.5zM432 808q-6 -1 -14 -1q-14 0 -82 13l-40 -30q-28 -19 -42 -23q-8 -1 -17 -1q-30 0 -55 20t-32 49q-2 11 -2 22q0 43 43 74l102 71l123 -19q81 -13 81 -87q0 -30 -18 -55.5t-47 -32.5z" />
    <glyph glyph-name="Ograve" unicode="&#xd2;" horiz-adv-x="722" 
d="M190 -6q-109 44 -169 137q-59 90 -59 202q0 83 33 164q48 117 141.5 185.5t207.5 68.5q71 0 140 -28q109 -44 168 -136.5t59 -205.5q0 -82 -32 -161q-47 -117 -141 -185.5t-207 -68.5q-71 0 -141 28zM414 549q-29 12 -58 12q-54 0 -99 -38.5t-71 -102.5q-22 -55 -22 -104
q0 -108 96 -147q31 -13 60 -13q111 0 168 142q22 53 22 102q0 110 -96 149zM491 712l-10 2q-9 2 -36 21l-99 68q-39 27 -39 70q0 11 2 23q6 25 29.5 46.5t52.5 21.5q24 0 58 -23l113 -81q28 -23 28 -56q0 -32 -26.5 -62.5t-58.5 -30.5q-7 0 -14 1z" />
    <glyph glyph-name="Uacute" unicode="&#xda;" horiz-adv-x="697" 
d="M12 282q0 17 2 35l37 355q5 47 36 72t74 20q43 -4 68.5 -35t20.5 -78l-37 -347q-1 -10 -1 -19q0 -55 31 -91.5t84 -42.5q55 -5 95.5 31.5t46.5 94.5l37 347q4 47 35.5 72t74.5 20q43 -4 68 -35t20 -78l-37 -355q-13 -125 -106.5 -205t-217.5 -80q-136 0 -232 90
q-99 93 -99 229zM402 774l-118 -23q-31 -7 -50 -3q-30 5 -47 34q-14 25 -14 57q0 57 53 73l10 3l125 27q31 6 49 3q29 -5 48 -33q16 -25 16 -54q0 -69 -72 -84z" />
    <glyph glyph-name="Ucircumflex" unicode="&#xdb;" horiz-adv-x="698" 
d="M240 -24q-112 28 -182 114.5t-70 196.5q0 40 10 79l86 347q20 79 95 79q13 0 27 -4q76 -18 76 -94q0 -14 -4 -30l-84 -338q-6 -22 -6 -43q0 -46 25.5 -79.5t71.5 -44.5q15 -4 31 -4q44 0 79.5 30t47.5 79l85 338q19 79 94 79q14 0 28 -3q76 -19 76 -94q0 -15 -4 -30
l-87 -347q-27 -109 -115 -175t-198 -66q-42 0 -82 10zM482 747q-16 -3 -95 19q-20 -13 -41 -25q-30 -18 -44 -20q-39 -5 -69 23.5t-30 67.5q0 48 51 77l107 63l121 -31q65 -16 73 -74q5 -34 -16.5 -65t-56.5 -35z" />
    <glyph glyph-name="Ugrave" unicode="&#xd9;" horiz-adv-x="730" 
d="M447 -30q-30 -6 -61 -6q-118 0 -206 72q-92 73 -113 192l-62 351q-2 12 -2 23q0 43 30 70.5t73 27.5q36 0 62.5 -22.5t33.5 -63.5l61 -344q9 -53 43.5 -85t82.5 -32q13 0 25 2q48 8 76.5 45.5t28.5 86.5q0 14 -3 28l-61 344q-2 11 -2 22q0 44 30 71t73 27
q36 0 62.5 -22.5t33.5 -63.5l62 -351q5 -28 5 -56q0 -117 -77 -206t-195 -110zM321 738l-9 -3q-9 -3 -41 -2l-120 5q-38 2 -61.5 26t-23.5 60q0 30 15.5 54t43.5 30q15 3 40 2l138 -9q46 -6 60 -45q6 -17 6 -37q0 -64 -48 -81z" />
    <glyph glyph-name="glyph231" horiz-adv-x="285" 
 />
    </font>
</defs>
</svg>
